<svg width="791" height="736" viewBox="0 0 791 736" fill="none" xmlns="http://www.w3.org/2000/svg">
<path d="M711.742 630.411H659.346V630.807H711.742V630.411Z" fill="#EBEBEB"/>
<path d="M523.99 634.714H510.242V635.11H523.99V634.714Z" fill="#EBEBEB"/>
<path d="M657.764 615.73H627.405V616.126H657.764V615.73Z" fill="#EBEBEB"/>
<path d="M151.318 618.388H82.9917V618.784H151.318V618.388Z" fill="#EBEBEB"/>
<path d="M175.428 618.388H165.414V618.784H175.428V618.388Z" fill="#EBEBEB"/>
<path d="M356.187 625.064H207.986V625.459H356.187V625.064Z" fill="#EBEBEB"/>
<path d="M374.934 534.4H69.4814C67.0857 534.4 64.7881 533.448 63.094 531.754C61.3999 530.06 60.4482 527.762 60.4482 525.366V95.9641C60.4691 93.5821 61.43 91.3047 63.1218 89.6278C64.8136 87.9508 67.0993 87.0099 69.4814 87.01H374.934C377.33 87.01 379.627 87.9617 381.321 89.6558C383.016 91.3498 383.967 93.6475 383.967 96.0432V525.366C383.967 527.762 383.016 530.06 381.321 531.754C379.627 533.448 377.33 534.4 374.934 534.4ZM69.4814 87.3264C67.1919 87.3306 64.9973 88.242 63.3783 89.861C61.7593 91.4799 60.8479 93.6745 60.8437 95.9641V525.366C60.8479 527.656 61.7593 529.851 63.3783 531.47C64.9973 533.089 67.1919 534 69.4814 534.004H374.934C377.224 534 379.418 533.089 381.037 531.47C382.656 529.851 383.568 527.656 383.572 525.366V95.9641C383.568 93.6745 382.656 91.4799 381.037 89.861C379.418 88.242 377.224 87.3306 374.934 87.3264H69.4814Z" fill="#EBEBEB"/>
<path d="M717.136 534.4H411.652C409.258 534.395 406.963 533.442 405.269 531.749C403.576 530.056 402.623 527.761 402.619 525.366V95.9641C402.644 93.5834 403.606 91.3084 405.297 89.6323C406.988 87.9562 409.271 87.014 411.652 87.01H717.136C719.513 87.0182 721.791 87.9628 723.476 89.6389C725.161 91.315 726.117 93.5876 726.138 95.9641V525.366C726.138 527.757 725.191 530.05 723.503 531.743C721.816 533.436 719.527 534.391 717.136 534.4ZM411.652 87.3264C409.363 87.3306 407.168 88.242 405.549 89.861C403.93 91.4799 403.019 93.6745 403.015 95.9641V525.366C403.019 527.656 403.93 529.851 405.549 531.47C407.168 533.089 409.363 534 411.652 534.004H717.136C719.426 534 721.621 533.089 723.24 531.47C724.859 529.851 725.77 527.656 725.774 525.366V95.9641C725.77 93.6745 724.859 91.4799 723.24 89.861C721.621 88.242 719.426 87.3306 717.136 87.3264H411.652Z" fill="#EBEBEB"/>
<path d="M791 604.957H0V605.352H791V604.957Z" fill="#EBEBEB"/>
<path d="M393.348 411.874H388.602V355.08C388.681 349.008 386.428 343.136 382.308 338.675C378.188 334.213 372.514 331.501 366.454 331.097C363.393 330.943 360.331 331.395 357.445 332.425C354.558 333.455 351.902 335.044 349.629 337.101C347.357 339.157 345.511 341.642 344.199 344.412C342.887 347.182 342.133 350.183 341.981 353.245C341.969 353.544 341.842 353.828 341.627 354.037C341.413 354.246 341.126 354.364 340.826 354.368H338.39C338.235 354.368 338.081 354.337 337.938 354.277C337.795 354.218 337.665 354.13 337.556 354.02C337.447 353.909 337.362 353.778 337.304 353.634C337.246 353.491 337.217 353.337 337.219 353.182C337.536 346.031 340.565 339.269 345.691 334.273C350.816 329.277 357.653 326.421 364.809 326.288C380.503 326.019 393.285 339.402 393.285 355.112L393.348 411.874Z" fill="#F0F0F0"/>
<path d="M700.336 418.075H666.607V604.894H700.336V418.075Z" fill="#E6E6E6"/>
<path d="M675.815 418.075H310.373V604.894H675.815V418.075Z" fill="#F5F5F5"/>
<path d="M675.815 456.977H310.373V460.141H400.151V604.894H403.315V460.141H490.641V604.894H493.805V460.141H581.148V604.894H584.312V460.141H675.815V456.977Z" fill="#E0E0E0"/>
<path d="M391.055 540.032C390.215 540.032 389.411 539.698 388.817 539.105C388.224 538.512 387.891 537.707 387.891 536.868V522.63C387.891 521.79 388.224 520.986 388.817 520.392C389.411 519.799 390.215 519.466 391.055 519.466C391.894 519.466 392.698 519.799 393.292 520.392C393.885 520.986 394.219 521.79 394.219 522.63V536.868C394.219 537.707 393.885 538.512 393.292 539.105C392.698 539.698 391.894 540.032 391.055 540.032Z" fill="#E6E6E6"/>
<path d="M412.412 540.032C411.572 540.032 410.768 539.698 410.174 539.105C409.581 538.512 409.248 537.707 409.248 536.868V522.63C409.248 521.79 409.581 520.986 410.174 520.392C410.768 519.799 411.572 519.466 412.412 519.466C413.251 519.466 414.055 519.799 414.649 520.392C415.242 520.986 415.576 521.79 415.576 522.63V536.868C415.576 537.707 415.242 538.512 414.649 539.105C414.055 539.698 413.251 540.032 412.412 540.032Z" fill="#E6E6E6"/>
<path d="M572.051 540.032C571.212 540.032 570.407 539.698 569.814 539.105C569.221 538.512 568.887 537.707 568.887 536.868V522.63C568.887 521.79 569.221 520.986 569.814 520.392C570.407 519.799 571.212 519.466 572.051 519.466C572.89 519.466 573.695 519.799 574.288 520.392C574.882 520.986 575.215 521.79 575.215 522.63V536.868C575.215 537.707 574.882 538.512 574.288 539.105C573.695 539.698 572.89 540.032 572.051 540.032Z" fill="#E6E6E6"/>
<path d="M593.408 540.032C592.569 540.032 591.764 539.698 591.171 539.105C590.578 538.512 590.244 537.707 590.244 536.868V522.63C590.244 521.79 590.578 520.986 591.171 520.392C591.764 519.799 592.569 519.466 593.408 519.466C594.247 519.466 595.052 519.799 595.645 520.392C596.239 520.986 596.572 521.79 596.572 522.63V536.868C596.572 537.707 596.239 538.512 595.645 539.105C595.052 539.698 594.247 540.032 593.408 540.032Z" fill="#E6E6E6"/>
<path d="M708.246 413.978H666.323V422.157H708.246V413.978Z" fill="#E0E0E0"/>
<path d="M678.979 413.978H302.463V422.157H678.979V413.978Z" fill="#EBEBEB"/>
<path d="M436.98 414.911H312.176C311.37 414.911 310.598 414.591 310.028 414.021C309.459 413.452 309.139 412.679 309.139 411.874C309.139 411.068 309.459 410.295 310.028 409.726C310.598 409.156 311.37 408.836 312.176 408.836H436.98C437.786 408.836 438.558 409.156 439.128 409.726C439.697 410.295 440.018 411.068 440.018 411.874C440.018 412.679 439.697 413.452 439.128 414.021C438.558 414.591 437.786 414.911 436.98 414.911Z" fill="#E6E6E6"/>
<path d="M405.277 403.726H400.547V409.738H405.277V403.726Z" fill="#E0E0E0"/>
<path d="M407.302 405.229H398.506L400.214 394.709H405.593L407.302 405.229Z" fill="#F0F0F0"/>
<path d="M381.341 403.726H376.611V409.738H381.341V403.726Z" fill="#E0E0E0"/>
<path d="M383.382 405.229H374.57L376.295 394.709H381.658L383.382 405.229Z" fill="#F0F0F0"/>
<path d="M481.671 114.553H478.824V336.618H481.671V114.553Z" fill="#E0E0E0"/>
<path d="M658.935 114.553H656.087V336.618H658.935V114.553Z" fill="#E0E0E0"/>
<path d="M670.088 128.522H467.671L463.399 118.555H674.359L670.088 128.522Z" fill="#EBEBEB"/>
<path d="M670.088 142.206H467.671L463.399 132.239H674.359L670.088 142.206Z" fill="#EBEBEB"/>
<path d="M670.088 155.89H467.671L463.399 145.924H674.359L670.088 155.89Z" fill="#EBEBEB"/>
<path d="M670.088 169.575H467.671L463.399 159.608H674.359L670.088 169.575Z" fill="#EBEBEB"/>
<path d="M670.088 183.259H467.671L463.399 173.292H674.359L670.088 183.259Z" fill="#EBEBEB"/>
<path d="M670.088 196.943H467.671L463.399 186.977H674.359L670.088 196.943Z" fill="#EBEBEB"/>
<path d="M670.088 210.627H467.671L463.399 200.661H674.359L670.088 210.627Z" fill="#EBEBEB"/>
<path d="M670.088 224.296H467.671L463.399 214.345H674.359L670.088 224.296Z" fill="#EBEBEB"/>
<path d="M670.088 237.996H467.671L463.399 228.014H674.359L670.088 237.996Z" fill="#EBEBEB"/>
<path d="M670.088 251.665H467.671L463.399 241.698H674.359L670.088 251.665Z" fill="#EBEBEB"/>
<path d="M670.088 265.349H467.671L463.399 255.382H674.359L670.088 265.349Z" fill="#EBEBEB"/>
<path d="M670.088 279.033H467.671L463.399 269.067H674.359L670.088 279.033Z" fill="#EBEBEB"/>
<path d="M670.088 292.717H467.671L463.399 282.751H674.359L670.088 292.717Z" fill="#EBEBEB"/>
<path d="M670.088 306.402H467.671L463.399 296.435H674.359L670.088 306.402Z" fill="#EBEBEB"/>
<path d="M670.088 320.086H467.671L463.399 310.12H674.359L670.088 320.086Z" fill="#EBEBEB"/>
<path d="M670.088 333.77H467.671L463.399 323.804H674.359L670.088 333.77Z" fill="#EBEBEB"/>
<path d="M674.359 333.77H463.399V339.466H674.359V333.77Z" fill="#E0E0E0"/>
<path d="M681.715 106.073H456.043V119.362H681.715V106.073Z" fill="#E0E0E0"/>
<path d="M458.369 239.847C457.76 239.847 457.177 239.605 456.747 239.175C456.316 238.745 456.075 238.161 456.075 237.553V160.035C456.075 159.427 456.316 158.843 456.747 158.413C457.177 157.983 457.76 157.741 458.369 157.741C458.977 157.741 459.561 157.983 459.991 158.413C460.421 158.843 460.663 159.427 460.663 160.035V237.553C460.663 238.161 460.421 238.745 459.991 239.175C459.561 239.605 458.977 239.847 458.369 239.847Z" fill="#E0E0E0"/>
<path d="M459.191 116.704H457.53V162.74H459.191V116.704Z" fill="#E0E0E0"/>
<path d="M193.036 503.234H259.875V492.951H193.036V503.234Z" fill="#E0E0E0"/>
<path d="M263.83 604.878H191.058V504.057C191.058 502.685 191.603 501.369 192.573 500.399C193.543 499.429 194.859 498.884 196.231 498.884H258.72C260.092 498.884 261.408 499.429 262.378 500.399C263.348 501.369 263.893 502.685 263.893 504.057V604.878H263.83Z" fill="#F0F0F0"/>
<path d="M196.769 496.115H258.119C261.273 496.115 263.83 493.558 263.83 490.404V486.006C263.83 482.852 261.273 480.295 258.119 480.295H196.769C193.615 480.295 191.058 482.852 191.058 486.006V490.404C191.058 493.558 193.615 496.115 196.769 496.115Z" fill="#F0F0F0"/>
<path d="M242.473 604.894H276.486V600.148L242.473 596.984V604.894Z" fill="#E0E0E0"/>
<path d="M645.63 351.394H616.189C613.299 351.398 610.529 352.548 608.486 354.591C606.443 356.634 605.293 359.404 605.289 362.294V365.932H611.158V362.278C611.156 361.616 611.285 360.96 611.537 360.348C611.789 359.736 612.159 359.179 612.626 358.71C613.093 358.242 613.649 357.87 614.26 357.616C614.872 357.362 615.527 357.231 616.189 357.231H645.63C646.966 357.236 648.245 357.769 649.188 358.715C650.131 359.661 650.661 360.942 650.661 362.278V365.917H656.53V362.278C656.526 359.39 655.376 356.621 653.332 354.581C651.288 352.54 648.518 351.394 645.63 351.394Z" fill="#E0E0E0"/>
<path d="M680.513 373.89V406.875C680.513 408.972 679.68 410.984 678.196 412.468C676.713 413.951 674.701 414.785 672.603 414.785H600.97C598.872 414.785 596.86 413.951 595.377 412.468C593.894 410.984 593.06 408.972 593.06 406.875V373.89C593.06 371.792 593.894 369.78 595.377 368.297C596.86 366.813 598.872 365.98 600.97 365.98H672.54C673.584 365.972 674.619 366.17 675.586 366.564C676.553 366.958 677.433 367.539 678.174 368.274C678.915 369.01 679.504 369.884 679.905 370.848C680.306 371.812 680.513 372.846 680.513 373.89Z" fill="#E6E6E6"/>
<path d="M669.36 373.89V406.875C669.36 408.972 668.527 410.984 667.043 412.468C665.56 413.951 663.548 414.785 661.45 414.785H589.817C587.719 414.785 585.707 413.951 584.224 412.468C582.74 410.984 581.907 408.972 581.907 406.875V373.89C581.907 371.792 582.74 369.78 584.224 368.297C585.707 366.813 587.719 365.98 589.817 365.98H661.387C662.431 365.972 663.466 366.17 664.433 366.564C665.4 366.958 666.28 367.539 667.021 368.274C667.762 369.01 668.35 369.884 668.752 370.848C669.153 371.812 669.36 372.846 669.36 373.89Z" fill="#F5F5F5"/>
<path d="M644.554 371.596H607.203V408.947H644.554V371.596Z" fill="white"/>
<path d="M629.066 379.996H622.754V401.717H629.066V379.996Z" fill="#E0E0E0"/>
<path d="M615.05 387.685V393.997H636.771V387.685H615.05Z" fill="#E0E0E0"/>
<path d="M387.875 670.309C557.279 670.309 694.609 662.291 694.609 652.401C694.609 642.51 557.279 634.493 387.875 634.493C218.47 634.493 81.1408 642.51 81.1408 652.401C81.1408 662.291 218.47 670.309 387.875 670.309Z" fill="#F5F5F5"/>
<path d="M548.59 375.108C549.634 374.981 579.882 377.971 581.812 410.387L576.639 432.851C552.189 423.771 525.233 424.132 501.035 433.864L500.671 434.022L502.775 408.362C502.775 408.362 510.527 379.569 548.59 375.108Z" fill="#263238"/>
<path d="M485.073 531.663L491.148 532.185C493.367 493.61 497.724 455.187 504.199 417.094C505.365 410.939 507.741 405.076 511.19 399.845C514.639 394.615 519.092 390.121 524.291 386.625C526.487 385.04 528.88 383.748 531.41 382.781C536.059 380.789 541.049 379.715 546.106 379.617C548.16 379.617 550.211 379.76 552.245 380.044C556.834 380.748 561.213 382.449 565.075 385.027C566.885 386.412 568.617 387.896 570.264 389.473C571.133 390.372 571.942 391.329 572.684 392.336C575.352 396.164 577.191 400.506 578.085 405.085C578.978 409.664 578.906 414.38 577.873 418.929C571.434 453.752 566.939 488.905 564.41 524.227L570.485 524.639C572.969 489.595 577.4 454.716 583.758 420.163C584.972 414.78 585.046 409.202 583.975 403.788C582.905 398.375 580.713 393.245 577.541 388.729C574.413 384.324 570.354 380.663 565.651 378.005C560.948 375.347 555.717 373.759 550.33 373.352C526.6 371.77 501.905 391.055 498.251 415.797C491.725 454.146 487.326 492.827 485.073 531.663Z" fill="#263238"/>
<path opacity="0.3" d="M485.073 531.663L491.148 532.185C493.367 493.61 497.724 455.187 504.199 417.094C505.365 410.939 507.741 405.076 511.19 399.845C514.639 394.615 519.092 390.121 524.291 386.625C526.487 385.04 528.88 383.748 531.41 382.781C536.059 380.789 541.049 379.715 546.106 379.617C548.16 379.617 550.211 379.76 552.245 380.044C556.834 380.748 561.213 382.449 565.075 385.027C566.885 386.412 568.617 387.896 570.264 389.473C571.133 390.372 571.942 391.329 572.684 392.336C575.352 396.164 577.191 400.506 578.085 405.085C578.978 409.664 578.906 414.38 577.873 418.929C571.434 453.752 566.939 488.905 564.41 524.227L570.485 524.639C572.969 489.595 577.4 454.716 583.758 420.163C584.972 414.78 585.046 409.202 583.975 403.788C582.905 398.375 580.713 393.245 577.541 388.729C574.413 384.324 570.354 380.663 565.651 378.005C560.948 375.347 555.717 373.759 550.33 373.352C526.6 371.77 501.905 391.055 498.251 415.797C491.725 454.146 487.326 492.827 485.073 531.663Z" fill="white"/>
<path d="M570.596 527.993H430.842V524.749C430.842 521.674 432.064 518.724 434.238 516.55C436.413 514.375 439.362 513.153 442.438 513.153H558.984C562.059 513.153 565.009 514.375 567.184 516.55C569.358 518.724 570.58 521.674 570.58 524.749V527.993H570.596Z" fill="#263238"/>
<path d="M565.866 650.076H573.285L567.21 528.008H557.75L565.866 650.076Z" fill="#263238"/>
<path opacity="0.3" d="M565.866 650.076H573.285L567.21 528.008H557.75L565.866 650.076Z" fill="white"/>
<path d="M516.238 650.076H523.658L519.608 528.008H510.163L516.238 650.076Z" fill="#263238"/>
<path opacity="0.3" d="M516.238 650.076H523.658L519.608 528.008H510.163L516.238 650.076Z" fill="white"/>
<path d="M477.764 650.076H485.184L491.258 528.008H481.814L477.764 650.076Z" fill="#263238"/>
<path opacity="0.3" d="M477.764 650.076H485.184L491.258 528.008H481.814L477.764 650.076Z" fill="white"/>
<path d="M428.137 650.076H435.572L443.672 528.008H434.212L428.137 650.076Z" fill="#263238"/>
<path opacity="0.3" d="M428.137 650.076H435.572L443.672 528.008H434.212L428.137 650.076Z" fill="white"/>
<path d="M424.751 533.403H507.79V522.598H424.751V533.403Z" fill="#263238"/>
<path opacity="0.7" d="M424.751 533.403H507.79V522.598H424.751V533.403Z" fill="white"/>
<path d="M507.79 533.403H576.686V522.598H507.79V533.403Z" fill="#263238"/>
<path opacity="0.4" d="M507.79 533.403H576.686V522.598H507.79V533.403Z" fill="white"/>
<path d="M482.826 355.744C467.734 358.719 437.834 371.564 437.644 370.868C437.644 370.868 412.475 364.904 402.129 353.466C402.129 353.466 392.241 352.248 387.068 351.22C390.817 360.063 398.142 370.789 406.273 375.899C416.604 382.385 419.42 384.347 429.64 388.239C442.422 393.111 461.991 387.938 474.663 382.749C479.33 380.835 484.155 378.399 486.86 374.159C489.566 369.919 487.019 358.576 482.826 355.744Z" fill="#407BFF"/>
<path opacity="0.7" d="M482.826 355.744C467.734 358.719 437.834 371.564 437.644 370.868C437.644 370.868 412.475 364.904 402.129 353.466C402.129 353.466 392.241 352.248 387.068 351.22C390.817 360.063 398.142 370.789 406.273 375.899C416.604 382.385 419.42 384.347 429.64 388.239C442.422 393.111 461.991 387.938 474.663 382.749C479.33 380.835 484.155 378.399 486.86 374.159C489.566 369.919 487.019 358.576 482.826 355.744Z" fill="white"/>
<path d="M442.738 355.001H405.134C399.882 336.017 410.402 316.922 405.134 297.891H442.738C448.007 316.922 437.47 335.969 442.738 355.001Z" fill="#407BFF"/>
<g opacity="0.7">
<path d="M442.738 355.001H405.134C399.882 336.017 410.402 316.922 405.134 297.891H442.738C448.007 316.922 437.47 335.969 442.738 355.001Z" fill="white"/>
</g>
<path d="M411.019 344.876L404.992 347.771C404.323 349.743 403.05 351.453 401.353 352.659C399.662 353.614 397.869 354.373 396.006 354.922C394.672 355.341 393.246 355.366 391.898 354.992C390.551 354.619 389.34 353.864 388.413 352.818C388.009 352.41 387.735 351.891 387.628 351.328C387.521 350.764 387.585 350.181 387.811 349.654L393.586 338.864C393.911 338.257 394.374 337.733 394.937 337.335C395.5 336.937 396.147 336.675 396.829 336.571L406.321 335.068C406.912 334.968 407.519 335.032 408.077 335.252C408.635 335.472 409.121 335.841 409.485 336.317L412.269 339.972C412.556 340.362 412.752 340.811 412.845 341.286C412.937 341.761 412.923 342.25 412.803 342.719C412.684 343.188 412.462 343.625 412.153 343.998C411.845 344.371 411.458 344.671 411.019 344.876Z" fill="#CE7A63"/>
<path d="M537.595 445.032L546.502 477.527L497.586 488.015L468.05 472.369L476.309 444.416L537.595 445.032Z" fill="#407BFF"/>
<path opacity="0.1" d="M537.595 445.032L546.502 477.527L497.586 488.015L468.05 472.369L476.309 444.416L537.595 445.032Z" fill="black"/>
<path d="M471.547 374.428C470.657 382.755 470.62 391.152 471.436 399.487C471.895 410.687 474.331 422.457 477.384 440.619C483.507 444.21 514.53 442.723 534.336 440.16C533.134 424.34 535.111 406.115 545.869 370.378C548.369 362.088 542.8 354.131 533.909 353.292C531.536 353.055 529.005 352.865 526.426 352.754C517.366 352.153 508.276 352.153 499.216 352.754C496.321 353.023 493.189 353.371 490.262 353.735C479.71 355.08 473.493 363.211 471.547 374.428Z" fill="#04128A"/>
<path d="M476.309 444.416C496.315 446.62 516.506 446.577 536.504 444.289C536.689 444.248 536.864 444.171 537.019 444.062C537.174 443.952 537.306 443.814 537.408 443.654C537.509 443.493 537.578 443.315 537.61 443.128C537.642 442.941 537.637 442.75 537.595 442.565V442.375C537.105 441.22 536.599 440.065 536.14 438.91C536.038 438.656 535.857 438.441 535.623 438.298C535.389 438.156 535.115 438.093 534.843 438.119C515.61 440.223 496.205 440.223 476.973 438.119C476.806 438.097 476.636 438.108 476.473 438.152C476.31 438.195 476.157 438.271 476.023 438.374C475.889 438.477 475.777 438.605 475.693 438.751C475.609 438.898 475.555 439.059 475.533 439.227C475.541 439.258 475.541 439.29 475.533 439.322C475.407 440.524 475.296 441.71 475.185 442.913C475.163 443.089 475.177 443.269 475.224 443.44C475.272 443.612 475.354 443.772 475.464 443.912C475.575 444.052 475.712 444.169 475.868 444.255C476.023 444.341 476.195 444.396 476.372 444.416H476.309Z" fill="#407BFF"/>
<path d="M498.504 352.264C483.712 371.248 482.684 418.17 486.402 510.337C486.734 518.374 479.03 517.789 471.483 516.238C460.251 513.913 455.79 514.751 455.79 514.751C455.79 514.751 473.714 467.687 470.803 425.479C467.892 383.271 469.917 368.353 476.767 360.617C483.617 352.881 498.504 352.264 498.504 352.264Z" fill="#407BFF"/>
<path opacity="0.7" d="M498.504 352.264C483.712 371.248 482.684 418.17 486.402 510.337C486.718 518.374 479.409 517.504 471.468 516.238C466.294 515.295 461.049 514.798 455.79 514.751C455.79 514.751 473.714 467.687 470.803 425.479C467.892 383.271 469.917 368.353 476.767 360.617C483.617 352.881 498.504 352.264 498.504 352.264Z" fill="white"/>
<path d="M524.544 322.095C522.187 330.812 519.276 346.901 524.971 352.754C524.971 352.754 517.456 358.782 501.526 364.588C496.78 363.37 497.776 352.754 497.776 352.754C507.727 350.413 508.012 343.262 506.809 336.381L524.544 322.095Z" fill="#CE7A63"/>
<path opacity="0.2" d="M517.314 327.917L506.794 336.365C507.09 337.93 507.248 339.518 507.268 341.111C511.049 340.573 516.476 336.491 517.172 332.568C517.486 331.037 517.535 329.464 517.314 327.917Z" fill="black"/>
<path d="M508.217 290.06C497.859 304.062 493.39 321.562 495.767 338.817C490.768 329.325 486.275 334.498 485.911 323.804C485.753 318.425 488.553 296.609 490.942 291.784C493.331 286.959 498.219 283.067 503.598 283.289C505.541 283.301 507.405 284.06 508.803 285.409C510.116 286.817 509.404 288.525 508.217 290.06Z" fill="#263238"/>
<path d="M532.027 304.519C529.385 318.662 528.546 324.706 520.431 331.413C508.281 341.57 491.606 336.159 489.961 321.811C488.522 308.822 493.125 287.877 507.695 283.21C510.796 282.077 514.143 281.797 517.389 282.4C520.634 283.003 523.658 284.467 526.144 286.638C528.63 288.809 530.488 291.608 531.522 294.742C532.557 297.877 532.731 301.231 532.027 304.456V304.519Z" fill="#CE7A63"/>
<path d="M507.474 307.762C507.142 308.917 506.24 309.724 505.512 309.566C504.785 309.408 504.421 308.332 504.753 307.177C505.085 306.022 505.987 305.2 506.73 305.358C507.474 305.516 507.822 306.592 507.474 307.762Z" fill="#263238"/>
<path d="M495.451 304.867C495.119 306.022 494.233 306.829 493.489 306.671C492.746 306.513 492.398 305.421 492.746 304.282C493.094 303.143 493.964 302.304 494.707 302.478C495.451 302.652 495.799 303.744 495.451 304.867Z" fill="#263238"/>
<path d="M495.024 302.605L492.492 301.197C492.492 301.197 493.283 303.744 495.024 302.605Z" fill="#263238"/>
<path d="M498.82 307.636C497.02 310.058 494.92 312.243 492.572 314.138C493.043 314.695 493.636 315.137 494.306 315.427C494.975 315.718 495.703 315.851 496.432 315.815L498.82 307.636Z" fill="#BA4D3C"/>
<path d="M501.779 321.542C501.117 321.51 500.46 321.415 499.817 321.257C499.773 321.25 499.732 321.233 499.695 321.209C499.658 321.184 499.627 321.153 499.603 321.115C499.579 321.078 499.563 321.036 499.556 320.992C499.55 320.949 499.552 320.904 499.564 320.861C499.593 320.772 499.655 320.696 499.737 320.649C499.818 320.602 499.915 320.588 500.007 320.608C501.476 320.932 502.999 320.923 504.463 320.581C505.928 320.238 507.297 319.572 508.471 318.631C508.536 318.566 508.624 318.53 508.716 318.53C508.808 318.53 508.896 318.566 508.961 318.631C509.022 318.698 509.056 318.785 509.056 318.876C509.056 318.967 509.022 319.054 508.961 319.121C506.948 320.787 504.39 321.649 501.779 321.542Z" fill="#263238"/>
<path d="M497.539 285.108C501.969 279.017 514.008 277.356 521.063 279.033C546.059 284.997 534.589 305.769 549.065 317.444C544.857 324.99 540.807 323.393 535.903 326.794C533.039 328.787 525.445 335.004 522.013 334.704C522.187 327.632 525.287 319.501 523.848 312.556C522.593 305.645 519.543 299.185 515.004 293.825C510.401 288.763 504.183 284.76 497.539 285.108Z" fill="#263238"/>
<path opacity="0.2" d="M497.539 285.108C501.969 279.017 514.008 277.356 521.063 279.033C546.059 284.997 534.589 305.769 549.065 317.444C544.857 324.99 540.807 323.393 535.903 326.794C533.039 328.787 525.445 335.004 522.013 334.704C522.187 327.632 525.287 319.501 523.848 312.556C522.593 305.645 519.543 299.185 515.004 293.825C510.401 288.763 504.183 284.76 497.539 285.108Z" fill="black"/>
<path d="M497.539 285.108C501.969 279.017 514.008 277.356 521.063 279.033C546.059 284.997 534.589 305.769 549.065 317.444C544.857 324.99 540.807 323.393 535.903 326.794C533.039 328.787 525.445 335.004 522.013 334.704C522.187 327.632 525.287 319.501 523.848 312.556C522.593 305.645 519.543 299.185 515.004 293.825C510.401 288.763 504.183 284.76 497.539 285.108Z" fill="#263238"/>
<path opacity="0.1" d="M497.539 285.108C501.969 279.017 514.008 277.356 521.063 279.033C546.059 284.997 534.589 305.769 549.065 317.444C544.857 324.99 540.807 323.393 535.903 326.794C533.039 328.787 525.445 335.004 522.013 334.704C522.187 327.632 525.287 319.501 523.848 312.556C522.593 305.645 519.543 299.185 515.004 293.825C510.401 288.763 504.183 284.76 497.539 285.108Z" fill="black"/>
<path d="M531.188 318.836C530.462 320.007 529.499 321.012 528.359 321.786C527.22 322.56 525.931 323.086 524.575 323.329C521.206 323.804 520.225 319.88 521.791 316.273C523.247 313.109 526.616 308.87 529.701 310.072C532.786 311.274 533.134 315.751 531.188 318.836Z" fill="#CE7A63"/>
<path d="M512.869 303.143C512.783 303.116 512.705 303.069 512.642 303.006C512.578 302.942 512.531 302.865 512.505 302.779C512.213 301.974 511.727 301.254 511.089 300.682C510.451 300.111 509.682 299.706 508.85 299.504C508.685 299.481 508.535 299.393 508.435 299.259C508.334 299.126 508.29 298.958 508.312 298.792C508.305 298.767 508.305 298.739 508.312 298.713C508.354 298.527 508.466 298.363 508.625 298.257C508.785 298.151 508.978 298.111 509.167 298.144C510.225 298.378 511.207 298.876 512.021 299.593C512.834 300.309 513.452 301.221 513.818 302.241C513.879 302.417 513.869 302.611 513.789 302.779C513.709 302.948 513.566 303.079 513.391 303.143C513.223 303.209 513.036 303.209 512.869 303.143Z" fill="#263238"/>
<path d="M492.793 298.017C492.706 298.015 492.621 297.996 492.542 297.96C492.463 297.925 492.392 297.874 492.333 297.811C492.274 297.747 492.228 297.673 492.199 297.591C492.169 297.51 492.156 297.423 492.16 297.337C492.165 297.236 492.193 297.138 492.243 297.05C492.292 296.962 492.361 296.887 492.445 296.831C493.289 296.063 494.3 295.5 495.398 295.187C496.495 294.874 497.651 294.82 498.773 295.027C498.94 295.075 499.083 295.186 499.171 295.336C499.259 295.486 499.287 295.664 499.248 295.834C499.183 296.012 499.056 296.16 498.889 296.25C498.723 296.34 498.53 296.367 498.346 296.324C497.46 296.176 496.553 296.231 495.692 296.486C494.831 296.741 494.04 297.189 493.378 297.796C493.302 297.872 493.21 297.931 493.11 297.97C493.009 298.008 492.901 298.024 492.793 298.017Z" fill="#263238"/>
<path d="M507.047 305.5L504.516 304.092C504.516 304.092 505.307 306.576 507.047 305.5Z" fill="#263238"/>
<path d="M499.69 284.507C498.616 285.675 497.759 287.025 497.159 288.494C496.861 289.227 496.73 290.017 496.773 290.808C496.817 291.598 497.035 292.369 497.412 293.066C498.21 294.22 499.35 295.094 500.671 295.565C501.965 296.13 503.318 296.55 504.705 296.815C503.975 296.208 503.437 295.402 503.156 294.495C502.876 293.588 502.864 292.619 503.123 291.705C503.277 292.601 503.623 293.454 504.136 294.205C504.649 294.955 505.318 295.587 506.098 296.056C507.521 296.894 509.119 297.353 510.591 298.096C515.226 300.422 523.863 312.603 517.472 337.931C523.12 335.843 531.046 315.957 529.733 310.072C528.42 304.187 528.151 289.063 513.106 283.779C509.04 282.371 503.82 283.336 499.69 284.507Z" fill="#263238"/>
<path d="M426.618 636.565L413.029 637.878L404.976 599.594L421.002 597.743L426.618 636.565Z" fill="#CE7A63"/>
<path d="M407.412 634.714C408.672 633.432 410.364 632.665 412.158 632.563L426.729 631.55C427.057 631.509 427.388 631.596 427.654 631.794C427.919 631.991 428.098 632.284 428.152 632.61L430.968 646.136C431.129 646.879 430.989 647.654 430.58 648.294C430.172 648.934 429.526 649.387 428.785 649.553H428.722C423.217 650.977 419.752 649.822 411.32 650.408C406.131 650.772 395.104 652.828 388.033 651.657C380.961 650.487 381.863 643.478 384.869 643.336C395.721 642.988 404.612 637.546 407.412 634.714Z" fill="#263238"/>
<g opacity="0.2">
<path d="M404.976 599.61L409.659 621.868L424.071 618.863L421.018 597.759L404.976 599.61Z" fill="black"/>
</g>
<path d="M490.151 520.225C489.613 520.225 489.059 520.225 488.49 520.225C487.564 520.212 486.639 520.143 485.721 520.019L412.949 516.128C424.704 526.901 426.634 613.231 426.634 613.231L423.153 613.974L407.333 617.344L404.438 617.961C404.438 617.961 397.841 589.691 390.2 557.26C386.34 540.838 381.341 523.864 379.126 507.569C378.524 503.237 378.176 498.874 378.082 494.502C378.082 493.157 378.082 491.828 378.082 490.499C378.074 490.362 378.074 490.225 378.082 490.088C378.082 489.518 378.082 488.98 378.209 488.506C378.575 485.874 379.671 483.397 381.373 481.355L381.911 480.738C382.088 480.532 382.278 480.336 382.48 480.153C382.862 479.758 383.263 479.384 383.682 479.03C384.125 478.666 384.568 478.302 385.043 477.954L386.261 477.115C386.767 476.799 387.274 476.499 387.843 476.198C388.109 476.04 388.384 475.897 388.666 475.771C389.488 475.328 390.343 474.916 391.244 474.537L392.02 474.205L393.08 473.809C393.396 473.667 393.712 473.556 394.029 473.445C394.994 473.097 395.99 472.765 397.019 472.496L397.541 472.338H397.683C425.289 464.523 472.243 470.55 472.243 470.55C472.243 470.55 484.646 461.375 497.824 459.634L499.69 459.84L505.56 460.489C505.644 460.481 505.729 460.481 505.813 460.489C525.224 494.296 513.185 519.972 490.151 520.225Z" fill="#041499"/>
<g opacity="0.1">
<path d="M490.151 520.225C489.613 520.225 489.059 520.225 488.49 520.225C487.564 520.212 486.639 520.143 485.721 520.019L412.949 516.128C424.704 526.901 426.634 613.231 426.634 613.231L423.153 613.974L407.333 617.344L404.438 617.961C404.438 617.961 397.841 589.691 390.2 557.26C386.34 540.838 381.341 523.864 379.126 507.569C378.524 503.237 378.176 498.874 378.082 494.502C378.082 493.157 378.082 491.828 378.082 490.499C378.074 490.362 378.074 490.225 378.082 490.088C378.082 489.518 378.082 488.98 378.209 488.506C378.575 485.874 379.671 483.397 381.373 481.355L381.911 480.738C382.088 480.532 382.278 480.336 382.48 480.153C382.862 479.758 383.263 479.384 383.682 479.03C384.125 478.666 384.568 478.302 385.043 477.954L386.261 477.115C386.767 476.799 387.274 476.499 387.843 476.198C388.109 476.04 388.384 475.897 388.666 475.771C389.488 475.328 390.343 474.916 391.244 474.537L392.02 474.205L393.08 473.809C393.396 473.667 393.712 473.556 394.029 473.445C394.994 473.097 395.99 472.765 397.019 472.496L397.541 472.338H397.683C425.289 464.523 472.243 470.55 472.243 470.55C472.243 470.55 484.646 461.375 497.824 459.634L499.69 459.84L505.56 460.489C505.644 460.481 505.729 460.481 505.813 460.489C525.224 494.296 513.185 519.972 490.151 520.225Z" fill="black"/>
</g>
<path d="M336.65 571.561L332.758 577.525L324.089 590.814L309.582 592.333L320.576 569.235L328.044 553.51L336.65 571.561Z" fill="#CE7A63"/>
<path d="M313.236 582.382L325.243 589.88C325.513 590.031 325.718 590.275 325.82 590.567C325.922 590.858 325.914 591.176 325.797 591.462L319.912 605.194C319.746 605.522 319.517 605.815 319.238 606.055C318.959 606.294 318.635 606.477 318.285 606.591C317.936 606.706 317.567 606.751 317.2 606.723C316.833 606.695 316.475 606.594 316.147 606.428H316.068C310.467 603.027 307.952 601.113 300.849 596.936L283.178 586.685C277.135 583.141 280.394 577.035 283.257 577.968C295.913 582.176 304.503 582.714 310.151 581.828C311.213 581.641 312.306 581.837 313.236 582.382Z" fill="#263238"/>
<g opacity="0.2">
<path d="M336.65 571.561L332.774 577.525H332.758L320.576 569.235L328.044 553.51L336.65 571.561Z" fill="black"/>
</g>
<path d="M494.834 521.554C493.232 521.362 491.646 521.055 490.088 520.636C489.55 520.51 488.996 520.352 488.427 520.177C475.075 516.333 455.853 505.813 437.961 495.451C421.476 485.959 406.178 476.467 397.699 472.607H397.557L397.035 472.765C396.006 473.05 395.01 473.382 394.045 473.73C393.721 473.825 393.404 473.941 393.095 474.078L392.035 474.474L391.26 474.806C390.358 475.185 389.504 475.613 388.682 476.04C388.397 476.166 388.128 476.324 387.859 476.467C387.321 476.767 386.815 477.068 386.277 477.384L385.059 478.239C384.584 478.587 384.141 478.935 383.698 479.299C383.279 479.652 382.878 480.027 382.496 480.422C382.29 480.612 382.1 480.817 381.926 481.007L381.389 481.624C379.687 483.666 378.591 486.143 378.225 488.775C378.225 489.313 378.114 489.866 378.098 490.357C378.098 491.686 378.098 493.015 378.098 494.359C378.176 498.757 378.508 503.146 379.095 507.506V507.838C359.225 543.67 338.564 576.165 338.564 576.165L335.052 573.744L322.396 565.075L320.213 563.493C320.213 563.493 342.266 511.825 357.437 465.788C360.212 457.323 365.606 449.959 372.84 444.761C380.075 439.562 388.775 436.799 397.683 436.869C435.129 437.202 484.298 457.894 484.298 457.894L497.792 459.334L499.659 459.539L505.528 460.188C505.612 460.181 505.697 460.181 505.781 460.188C508.945 460.536 512.489 460.789 515.922 461.042C519.715 461.316 523.33 462.761 526.266 465.179C529.202 467.596 531.315 470.866 532.311 474.537C542.373 511.208 518.437 524.449 494.834 521.554Z" fill="#407BFF"/>
<path d="M494.834 521.554C493.232 521.362 491.646 521.055 490.088 520.636C489.55 520.51 488.996 520.352 488.427 520.177C475.075 516.333 455.853 505.813 437.961 495.451C421.476 485.959 406.178 476.467 397.699 472.607H397.557L397.035 472.765C396.006 473.05 395.01 473.382 394.045 473.73C393.721 473.825 393.404 473.941 393.095 474.078L392.035 474.474L391.26 474.806C390.358 475.185 389.504 475.613 388.682 476.04C388.397 476.166 388.128 476.324 387.859 476.467C387.321 476.767 386.815 477.068 386.277 477.384L385.059 478.239C384.584 478.587 384.141 478.935 383.698 479.299C383.279 479.652 382.878 480.027 382.496 480.422C382.29 480.612 382.1 480.817 381.926 481.007L381.389 481.624C379.687 483.666 378.591 486.143 378.225 488.775C378.225 489.313 378.114 489.866 378.098 490.357C378.098 491.686 378.098 493.015 378.098 494.359C378.176 498.757 378.508 503.146 379.095 507.506V507.838C359.225 543.67 338.564 576.165 338.564 576.165L335.052 573.744L322.396 565.075L320.213 563.493C320.213 563.493 342.266 511.825 357.437 465.788C360.212 457.323 365.606 449.959 372.84 444.761C380.075 439.562 388.775 436.799 397.683 436.869C435.129 437.202 484.298 457.894 484.298 457.894L497.792 459.334L499.659 459.539L505.528 460.188C505.612 460.181 505.697 460.181 505.781 460.188C508.945 460.536 512.489 460.789 515.922 461.042C519.715 461.316 523.33 462.761 526.266 465.179C529.202 467.596 531.315 470.866 532.311 474.537C542.373 511.208 518.437 524.449 494.834 521.554Z" fill="#061DDB"/>
<path d="M397.62 472.211L397.098 472.354L397.62 472.211Z" fill="#407BFF"/>
<path d="M525.588 351.394C525.588 351.394 515.289 360.538 512.22 382.607C507.316 418.186 509.879 486.782 511.714 525.968C511.78 527.305 512.161 528.608 512.826 529.77C513.491 530.932 514.421 531.92 515.541 532.655C516.661 533.389 517.938 533.848 519.269 533.994C520.6 534.141 521.946 533.971 523.199 533.498C535.428 528.942 555.409 532.517 564.331 524.781C564.98 512.979 544.445 452.674 546.439 421.461C548.432 390.248 552.324 363.053 548.29 357.168C544.255 351.283 525.588 351.394 525.588 351.394Z" fill="#407BFF"/>
<path opacity="0.7" d="M525.588 351.394C525.588 351.394 515.289 360.538 512.22 382.607C507.316 418.186 510.148 486.782 511.999 525.968C512.062 527.304 512.441 528.607 513.104 529.769C513.767 530.932 514.696 531.921 515.815 532.655C516.933 533.389 518.21 533.849 519.54 533.995C520.87 534.142 522.216 533.971 523.468 533.498C535.697 528.942 555.409 532.517 564.378 524.781C565.027 512.979 544.493 452.674 546.486 421.461C548.479 390.248 552.371 363.053 548.337 357.168C544.303 351.283 525.588 351.394 525.588 351.394Z" fill="white"/>
<path d="M525.129 398.221C525.06 398.217 524.993 398.2 524.932 398.17C524.87 398.139 524.814 398.098 524.769 398.046C524.723 397.995 524.688 397.935 524.666 397.87C524.644 397.805 524.634 397.736 524.639 397.667C524.643 397.575 524.671 397.485 524.721 397.407C524.771 397.33 524.841 397.266 524.923 397.224L527.122 396.149C529.177 395.164 530.883 393.577 532.014 391.599C533.144 389.62 533.645 387.345 533.45 385.075L531.663 363.67C531.53 362.077 530.865 360.574 529.774 359.404C528.684 358.235 527.231 357.466 525.65 357.223C524.069 356.98 522.453 357.277 521.061 358.065C519.669 358.852 518.584 360.086 517.978 361.566L509.815 381.404C508.94 383.508 508.724 385.827 509.195 388.056C509.667 390.285 510.805 392.318 512.457 393.886L514.245 395.579C514.341 395.679 514.394 395.812 514.394 395.951C514.394 396.089 514.341 396.223 514.245 396.323C514.196 396.372 514.138 396.411 514.075 396.438C514.011 396.465 513.942 396.478 513.873 396.478C513.804 396.478 513.735 396.465 513.672 396.438C513.608 396.411 513.55 396.372 513.501 396.323L511.714 394.63C509.91 392.912 508.672 390.686 508.163 388.247C507.654 385.809 507.9 383.273 508.866 380.977L517.092 361.187C517.793 359.492 519.042 358.081 520.641 357.182C522.239 356.282 524.093 355.946 525.905 356.227C527.717 356.508 529.383 357.39 530.633 358.731C531.884 360.073 532.648 361.795 532.802 363.623L534.574 384.996C534.778 387.481 534.219 389.969 532.973 392.128C531.726 394.288 529.851 396.016 527.597 397.082L525.398 398.142C525.321 398.2 525.225 398.228 525.129 398.221Z" fill="#263238"/>
<path d="M532.501 368.353C532.374 368.346 532.254 368.295 532.161 368.208C532.069 368.121 532.01 368.004 531.995 367.878C531.639 366.2 530.781 364.67 529.535 363.491C528.289 362.311 526.714 361.538 525.019 361.274C523.324 361.01 521.589 361.267 520.043 362.011C518.498 362.756 517.215 363.952 516.365 365.442C516.35 365.519 516.32 365.592 516.274 365.655C516.229 365.719 516.17 365.772 516.102 365.811C516.035 365.849 515.959 365.873 515.881 365.879C515.803 365.886 515.725 365.876 515.652 365.849C515.578 365.822 515.511 365.779 515.456 365.724C515.401 365.669 515.358 365.602 515.331 365.529C515.304 365.456 515.294 365.377 515.3 365.3C515.306 365.222 515.33 365.146 515.368 365.078C516.306 363.367 517.747 361.987 519.497 361.125C521.247 360.263 523.22 359.96 525.148 360.26C527.075 360.559 528.864 361.444 530.27 362.796C531.677 364.148 532.633 365.901 533.007 367.815C533.021 367.951 532.98 368.087 532.894 368.193C532.809 368.3 532.684 368.369 532.549 368.385L532.501 368.353Z" fill="#263238"/>
<path d="M525.683 357.216C525.615 357.212 525.548 357.194 525.487 357.164C525.426 357.134 525.372 357.091 525.328 357.04C525.283 356.988 525.25 356.928 525.229 356.863C525.209 356.798 525.202 356.73 525.208 356.662C525.43 354.083 525.208 349.369 522.788 348.087C522.727 348.054 522.674 348.009 522.631 347.956C522.588 347.902 522.557 347.84 522.537 347.774C522.518 347.708 522.512 347.639 522.52 347.57C522.528 347.502 522.549 347.436 522.582 347.376C522.615 347.315 522.66 347.262 522.714 347.219C522.768 347.176 522.829 347.144 522.895 347.125C522.962 347.106 523.031 347.1 523.099 347.108C523.167 347.116 523.234 347.137 523.294 347.17C526.774 349.068 526.268 355.966 526.189 356.757C526.177 356.883 526.119 357 526.025 357.085C525.931 357.169 525.809 357.216 525.683 357.216Z" fill="#263238"/>
<path d="M515.036 396.117C514.878 397.114 514.229 397.826 513.581 397.699C512.932 397.572 512.536 396.734 512.695 395.753C512.853 394.772 513.486 394.045 514.134 394.171C514.783 394.298 515.178 395.152 515.036 396.117Z" fill="#263238"/>
<path d="M526.316 397.889C526.173 398.854 525.525 399.566 524.876 399.471C524.227 399.376 523.832 398.49 523.99 397.509C524.148 396.528 524.781 395.832 525.43 395.927C526.078 396.022 526.474 396.892 526.316 397.889Z" fill="#263238"/>
<path d="M497.792 377.37C497.254 379.569 495.641 381.072 494.248 380.724C492.856 380.376 492.065 378.351 492.666 376.089C493.268 373.827 494.818 372.387 496.21 372.751C497.602 373.115 498.33 375.171 497.792 377.37Z" fill="#263238"/>
<path d="M493.299 376.611H493.189C493.12 376.607 493.053 376.589 492.991 376.559C492.929 376.529 492.874 376.487 492.828 376.436C492.783 376.385 492.748 376.325 492.725 376.26C492.703 376.195 492.694 376.126 492.698 376.057C493.252 367.198 498.52 352.533 504.294 347.74C504.342 347.688 504.399 347.647 504.463 347.619C504.527 347.591 504.596 347.577 504.666 347.577C504.736 347.577 504.805 347.591 504.869 347.619C504.933 347.647 504.99 347.688 505.038 347.74C505.087 347.788 505.126 347.846 505.153 347.91C505.179 347.974 505.193 348.042 505.193 348.111C505.193 348.18 505.179 348.249 505.153 348.313C505.126 348.377 505.087 348.435 505.038 348.483C505.003 348.523 504.96 348.556 504.911 348.578C499.342 353.324 494.217 367.42 493.695 376.136C493.69 376.248 493.649 376.355 493.578 376.441C493.506 376.527 493.408 376.587 493.299 376.611Z" fill="#263238"/>
<path d="M499.358 377.592C498.994 379.474 497.602 380.756 496.194 380.55C495.452 380.258 494.847 379.697 494.501 378.978C494.155 378.26 494.093 377.437 494.328 376.674C494.676 374.776 496.084 373.51 497.492 373.716C498.234 374.008 498.839 374.569 499.185 375.288C499.531 376.007 499.593 376.829 499.358 377.592Z" fill="white"/>
<path d="M499.469 377.766C498.979 380.091 497.697 381.8 496.637 381.578C495.577 381.357 495.055 379.269 495.625 376.927C496.194 374.586 497.397 372.893 498.457 373.131C499.516 373.368 499.912 375.424 499.469 377.766Z" fill="#263238"/>
<path d="M478.112 428.358L445.111 428.959C444.487 428.961 443.882 428.736 443.411 428.326C442.939 427.915 442.633 427.348 442.549 426.729L436.221 376.231C436.18 375.944 436.201 375.651 436.284 375.373C436.366 375.094 436.507 374.837 436.698 374.618C436.888 374.398 437.124 374.223 437.388 374.103C437.652 373.983 437.939 373.921 438.23 373.922L471.278 373.352C471.903 373.35 472.507 373.575 472.978 373.986C473.45 374.396 473.756 374.963 473.841 375.583L480.169 426.08C480.205 426.369 480.179 426.663 480.092 426.941C480.004 427.219 479.858 427.474 479.663 427.691C479.467 427.907 479.228 428.079 478.96 428.194C478.693 428.309 478.403 428.365 478.112 428.358Z" fill="#263238"/>
<path d="M459.223 377.544L451.313 377.687C450.536 377.692 449.783 377.412 449.2 376.898C448.616 376.385 448.242 375.674 448.149 374.902L447.548 370.188L461.153 369.935L461.722 374.586C461.788 374.95 461.772 375.324 461.676 375.681C461.58 376.038 461.407 376.37 461.168 376.652C460.929 376.935 460.631 377.161 460.295 377.316C459.959 377.47 459.593 377.548 459.223 377.544Z" fill="#263238"/>
<path opacity="0.7" d="M459.223 377.544L451.313 377.687C450.536 377.692 449.783 377.412 449.2 376.898C448.616 376.385 448.242 375.674 448.149 374.902L447.548 370.188L461.153 369.935L461.722 374.586C461.788 374.95 461.772 375.324 461.676 375.681C461.58 376.038 461.407 376.37 461.168 376.652C460.929 376.935 460.631 377.161 460.295 377.316C459.959 377.47 459.593 377.548 459.223 377.544Z" fill="white"/>
<path d="M472.796 373.431H471.214C471.838 373.436 472.439 373.663 472.909 374.072C473.379 374.482 473.687 375.045 473.777 375.662L480.105 426.175C480.146 426.463 480.125 426.755 480.042 427.034C479.96 427.312 479.819 427.57 479.628 427.789C479.438 428.008 479.202 428.183 478.938 428.303C478.674 428.424 478.387 428.485 478.096 428.485H479.678C479.968 428.486 480.255 428.424 480.518 428.304C480.782 428.184 481.017 428.008 481.206 427.788C481.395 427.569 481.535 427.311 481.615 427.033C481.696 426.754 481.715 426.462 481.672 426.175L475.344 375.662C475.253 375.048 474.947 374.486 474.481 374.078C474.014 373.669 473.417 373.44 472.796 373.431Z" fill="white"/>
<path opacity="0.2" d="M536.947 364.588C537.437 365.664 526.743 408.283 526.743 408.283L534.89 411.874L536.947 364.588Z" fill="black"/>
<path d="M554.491 392.115C552.64 408.836 550.932 415.37 549.745 417.189C543.607 439.859 524.085 428.453 521.269 427.52C516.396 425.938 511.366 422.616 506.715 420.464C497.666 416.367 489.123 413.124 480.659 407.919L484.994 398.569C484.994 398.569 517.472 405.625 521.728 406.479C523.579 406.891 532.802 408.409 532.596 403.458C533.545 401.781 534.384 373.131 537.042 361.693C537.349 360.411 537.914 359.205 538.703 358.149L538.972 357.801C540.743 355.396 541.914 355.412 545.157 355.539C552.229 355.824 555.567 361.281 556.31 368.321C557.006 374.934 555.282 385.597 554.491 392.115Z" fill="#407BFF"/>
<g opacity="0.7">
<path d="M554.491 392.115C552.64 408.836 550.932 415.37 549.745 417.189C543.607 439.859 524.085 428.453 521.269 427.52C516.396 425.938 511.366 422.616 506.715 420.464C497.666 416.367 489.123 413.124 480.659 407.919L484.994 398.569C484.994 398.569 517.472 405.625 521.728 406.479C523.579 406.891 532.802 408.409 532.596 403.458C533.545 401.781 534.384 373.131 537.042 361.693C537.349 360.411 537.914 359.205 538.703 358.149L538.972 357.801C540.743 355.396 541.914 355.412 545.157 355.539C552.229 355.824 555.567 361.281 556.31 368.321C557.006 374.934 555.282 385.597 554.491 392.115Z" fill="white"/>
</g>
<path d="M485.373 399.676C485.627 400.816 485.645 401.996 485.424 403.142C485.204 404.289 484.75 405.378 484.092 406.342C483.433 407.306 482.584 408.124 481.596 408.747C480.608 409.369 479.503 409.782 478.349 409.96C475.763 410.34 473.143 410.441 470.534 410.26L469.933 394.203L482.225 396.607C482.992 396.756 483.699 397.126 484.258 397.671C484.818 398.216 485.205 398.913 485.373 399.676Z" fill="#CE7A63"/>
<path d="M469.933 394.203L470.582 410.308L464.618 410.656C462.866 410.766 461.132 410.253 459.722 409.208C458.312 408.163 457.317 406.653 456.913 404.945L456.834 404.565C456.603 403.585 456.574 402.568 456.747 401.576C456.921 400.585 457.294 399.638 457.845 398.795C458.395 397.952 459.111 397.229 459.949 396.671C460.787 396.113 461.729 395.731 462.719 395.547L469.933 394.203Z" fill="#CE7A63"/>
<path d="M324.611 384.932L320.323 428.406H327.332L324.611 384.932Z" fill="#263238"/>
<path d="M376.927 428.152L326.604 428.358L324.152 384.948L374.459 384.727L376.927 428.152Z" fill="#407BFF"/>
<path opacity="0.6" d="M376.927 428.152L326.604 428.358L324.152 384.948L374.459 384.727L376.927 428.152Z" fill="white"/>
<path d="M374.459 384.727L324.152 384.948L323.677 376.817L374.001 376.611L374.459 384.727Z" fill="#263238"/>
<path d="M331.208 374.096C331.184 373.737 331.025 373.401 330.764 373.155C330.503 372.908 330.159 372.77 329.8 372.767C329.626 372.764 329.453 372.797 329.293 372.865C329.133 372.933 328.989 373.033 328.87 373.16C328.751 373.286 328.66 373.436 328.602 373.6C328.544 373.764 328.521 373.938 328.534 374.111C328.534 374.586 328.803 379 328.835 379.474C328.858 379.834 329.016 380.172 329.277 380.421C329.537 380.67 329.882 380.812 330.243 380.819C330.416 380.819 330.587 380.784 330.746 380.716C330.905 380.647 331.048 380.547 331.167 380.421C331.285 380.295 331.377 380.146 331.435 379.983C331.494 379.82 331.519 379.647 331.508 379.474C331.492 379.095 331.239 374.475 331.208 374.096Z" fill="#407BFF"/>
<path d="M340.889 374.064C340.869 373.703 340.713 373.363 340.451 373.113C340.19 372.864 339.843 372.723 339.481 372.719C339.307 372.719 339.134 372.754 338.974 372.824C338.814 372.893 338.67 372.995 338.551 373.123C338.432 373.251 338.341 373.402 338.283 373.566C338.226 373.731 338.203 373.906 338.216 374.08C338.216 374.554 338.485 378.968 338.516 379.443C338.544 379.802 338.706 380.138 338.969 380.384C339.233 380.631 339.58 380.769 339.94 380.772C340.113 380.772 340.285 380.737 340.443 380.668C340.602 380.6 340.746 380.499 340.864 380.373C340.983 380.247 341.074 380.098 341.133 379.936C341.192 379.773 341.217 379.6 341.206 379.427C341.174 379.047 340.921 374.444 340.889 374.064Z" fill="#407BFF"/>
<path d="M350.587 374.016C350.559 373.657 350.398 373.321 350.134 373.075C349.87 372.829 349.524 372.69 349.163 372.688C348.989 372.685 348.817 372.718 348.657 372.786C348.497 372.854 348.353 372.954 348.234 373.081C348.115 373.207 348.023 373.357 347.965 373.521C347.907 373.685 347.884 373.859 347.898 374.032C347.898 374.507 348.182 378.921 348.198 379.395C348.222 379.758 348.382 380.098 348.646 380.347C348.91 380.596 349.259 380.737 349.622 380.74C349.796 380.738 349.967 380.701 350.126 380.631C350.285 380.56 350.428 380.459 350.547 380.331C350.665 380.204 350.756 380.054 350.815 379.89C350.874 379.727 350.898 379.553 350.888 379.379C350.856 379 350.603 374.396 350.587 374.016Z" fill="#407BFF"/>
<path d="M360.269 373.985C360.245 373.622 360.085 373.282 359.821 373.033C359.557 372.784 359.208 372.643 358.845 372.64C358.673 372.642 358.502 372.679 358.345 372.748C358.187 372.817 358.044 372.918 357.926 373.043C357.808 373.169 357.716 373.317 357.657 373.479C357.597 373.64 357.571 373.812 357.579 373.985C357.579 374.459 357.864 378.889 357.896 379.364C357.92 379.722 358.078 380.058 358.339 380.304C358.6 380.55 358.945 380.689 359.304 380.692C359.478 380.695 359.65 380.662 359.81 380.594C359.97 380.526 360.114 380.426 360.233 380.299C360.352 380.173 360.444 380.023 360.502 379.859C360.56 379.695 360.583 379.521 360.569 379.348C360.554 378.968 360.285 374.364 360.269 373.985Z" fill="#407BFF"/>
<path d="M369.951 373.937C369.927 373.579 369.768 373.243 369.507 372.997C369.246 372.75 368.902 372.612 368.543 372.608C368.369 372.606 368.197 372.639 368.036 372.707C367.876 372.775 367.732 372.875 367.613 373.002C367.494 373.128 367.403 373.278 367.345 373.442C367.287 373.606 367.264 373.78 367.277 373.953C367.277 374.428 367.546 378.842 367.578 379.316C367.594 379.677 367.75 380.017 368.013 380.265C368.276 380.513 368.624 380.649 368.986 380.645C369.159 380.648 369.332 380.614 369.492 380.546C369.652 380.479 369.796 380.378 369.915 380.252C370.034 380.125 370.126 379.975 370.184 379.812C370.241 379.648 370.264 379.474 370.251 379.3C370.188 378.921 369.967 374.317 369.951 373.937Z" fill="#407BFF"/>
<g opacity="0.7">
<path d="M331.208 374.096C331.184 373.737 331.025 373.401 330.764 373.155C330.503 372.908 330.159 372.77 329.8 372.767C329.626 372.764 329.453 372.797 329.293 372.865C329.133 372.933 328.989 373.033 328.87 373.16C328.751 373.286 328.66 373.436 328.602 373.6C328.544 373.764 328.521 373.938 328.534 374.111C328.534 374.586 328.803 379 328.835 379.474C328.858 379.834 329.016 380.172 329.277 380.421C329.537 380.67 329.882 380.812 330.243 380.819C330.416 380.819 330.587 380.784 330.746 380.716C330.905 380.647 331.048 380.547 331.167 380.421C331.285 380.295 331.377 380.146 331.435 379.983C331.494 379.82 331.519 379.647 331.508 379.474C331.492 379.095 331.239 374.475 331.208 374.096Z" fill="white"/>
<path d="M340.889 374.064C340.869 373.703 340.713 373.363 340.451 373.113C340.19 372.863 339.843 372.723 339.481 372.719C339.307 372.719 339.134 372.754 338.974 372.824C338.814 372.893 338.67 372.995 338.551 373.123C338.432 373.25 338.341 373.401 338.283 373.566C338.226 373.731 338.203 373.906 338.216 374.08C338.216 374.554 338.485 378.968 338.516 379.443C338.544 379.802 338.706 380.138 338.969 380.384C339.233 380.63 339.58 380.769 339.94 380.771C340.113 380.772 340.285 380.737 340.443 380.668C340.602 380.6 340.746 380.499 340.864 380.373C340.983 380.247 341.074 380.098 341.133 379.935C341.192 379.773 341.217 379.6 341.206 379.427C341.174 379.047 340.921 374.443 340.889 374.064Z" fill="white"/>
<path d="M350.587 374.016C350.559 373.657 350.398 373.321 350.134 373.075C349.87 372.829 349.524 372.69 349.163 372.688C348.989 372.685 348.817 372.718 348.657 372.786C348.497 372.854 348.353 372.954 348.234 373.081C348.115 373.207 348.023 373.357 347.965 373.521C347.907 373.685 347.884 373.859 347.898 374.032C347.898 374.507 348.182 378.921 348.198 379.395C348.222 379.758 348.382 380.098 348.646 380.347C348.91 380.596 349.259 380.737 349.622 380.74C349.796 380.738 349.967 380.701 350.126 380.631C350.285 380.56 350.428 380.459 350.547 380.331C350.665 380.204 350.757 380.054 350.815 379.89C350.874 379.727 350.898 379.553 350.888 379.379C350.856 379 350.603 374.396 350.587 374.016Z" fill="white"/>
<path d="M360.269 373.985C360.245 373.622 360.085 373.282 359.821 373.033C359.557 372.784 359.208 372.643 358.845 372.64C358.673 372.642 358.502 372.679 358.345 372.748C358.187 372.817 358.044 372.918 357.926 373.043C357.808 373.169 357.716 373.317 357.657 373.479C357.597 373.64 357.571 373.812 357.579 373.985C357.579 374.459 357.864 378.889 357.896 379.364C357.92 379.722 358.078 380.058 358.339 380.304C358.6 380.55 358.945 380.689 359.304 380.692C359.478 380.695 359.65 380.662 359.81 380.594C359.97 380.526 360.114 380.426 360.233 380.299C360.352 380.173 360.444 380.023 360.502 379.859C360.56 379.695 360.583 379.521 360.569 379.348C360.554 378.968 360.285 374.364 360.269 373.985Z" fill="white"/>
<path d="M369.951 373.937C369.927 373.579 369.768 373.243 369.507 372.997C369.246 372.75 368.902 372.612 368.543 372.608C368.369 372.606 368.197 372.639 368.036 372.707C367.876 372.775 367.732 372.875 367.613 373.002C367.494 373.128 367.403 373.278 367.345 373.442C367.287 373.606 367.264 373.78 367.277 373.953C367.277 374.428 367.546 378.842 367.578 379.316C367.594 379.677 367.75 380.017 368.013 380.265C368.276 380.513 368.624 380.649 368.986 380.645C369.159 380.648 369.332 380.614 369.492 380.546C369.652 380.479 369.796 380.378 369.915 380.252C370.034 380.125 370.126 379.975 370.184 379.812C370.241 379.648 370.264 379.474 370.251 379.3C370.188 378.921 369.967 374.317 369.951 373.937Z" fill="white"/>
</g>
<path d="M378.335 426.934L328.012 427.14L324.152 384.948L374.459 384.727L378.335 426.934Z" fill="#407BFF"/>
<path opacity="0.8" d="M378.335 426.934L328.012 427.14L324.152 384.948L374.459 384.727L378.335 426.934Z" fill="white"/>
<path d="M363.813 395.152L338.896 395.247L338.216 387.827L363.132 387.717L363.813 395.152Z" fill="#407BFF"/>
<path opacity="0.6" d="M363.813 395.152L338.896 395.247L338.216 387.827L363.132 387.717L363.813 395.152Z" fill="white"/>
<path d="M335.59 404.865L328.929 404.897L328.312 398.237L334.973 398.205L335.59 404.865Z" fill="white"/>
<path d="M345.018 404.818L338.374 404.85L337.757 398.205L344.417 398.174L345.018 404.818Z" fill="white"/>
<path d="M336.396 413.835L329.752 413.867L329.135 407.207L335.795 407.175L336.396 413.835Z" fill="#407BFF"/>
<path d="M337.219 422.805L330.575 422.837L329.958 416.177L336.618 416.161L337.219 422.805Z" fill="#407BFF"/>
<path d="M345.841 413.804L339.197 413.819L338.58 407.175L345.224 407.143L345.841 413.804Z" fill="#407BFF"/>
<path opacity="0.2" d="M345.841 413.804L339.197 413.819L338.58 407.175L345.224 407.143L345.841 413.804Z" fill="white"/>
<path d="M355.286 413.756L348.625 413.788L348.024 407.128L354.669 407.096L355.286 413.756Z" fill="#407BFF"/>
<path opacity="0.2" d="M355.286 413.756L348.625 413.788L348.024 407.128L354.669 407.096L355.286 413.756Z" fill="white"/>
<path d="M364.714 413.725L358.07 413.74L357.453 407.096L364.113 407.064L364.714 413.725Z" fill="#407BFF"/>
<path opacity="0.2" d="M364.714 413.725L358.07 413.74L357.453 407.096L364.113 407.064L364.714 413.725Z" fill="white"/>
<path d="M374.159 413.677L367.499 413.709L366.897 407.049L373.542 407.033L374.159 413.677Z" fill="#407BFF"/>
<path opacity="0.2" d="M374.159 413.677L367.499 413.709L366.897 407.049L373.542 407.033L374.159 413.677Z" fill="white"/>
<path d="M346.664 422.774L340.003 422.805L339.402 416.145L346.063 416.113L346.664 422.774Z" fill="#407BFF"/>
<path opacity="0.2" d="M346.664 422.774L340.003 422.805L339.402 416.145L346.063 416.113L346.664 422.774Z" fill="white"/>
<path d="M356.092 422.726L349.448 422.758L348.831 416.098L355.491 416.082L356.092 422.726Z" fill="#407BFF"/>
<path opacity="0.2" d="M356.092 422.726L349.448 422.758L348.831 416.098L355.491 416.082L356.092 422.726Z" fill="white"/>
<path d="M365.537 422.695L358.893 422.726L358.276 416.066L364.936 416.034L365.537 422.695Z" fill="#407BFF"/>
<path opacity="0.2" d="M365.537 422.695L358.893 422.726L358.276 416.066L364.936 416.034L365.537 422.695Z" fill="white"/>
<path d="M354.463 404.786L347.803 404.818L347.202 398.158L353.846 398.126L354.463 404.786Z" fill="#407BFF"/>
<path opacity="0.2" d="M354.463 404.786L347.803 404.818L347.202 398.158L353.846 398.126L354.463 404.786Z" fill="white"/>
<path d="M363.892 404.739L357.247 404.771L356.63 398.126L363.29 398.094L363.892 404.739Z" fill="#407BFF"/>
<path opacity="0.2" d="M363.892 404.739L357.247 404.771L356.63 398.126L363.29 398.094L363.892 404.739Z" fill="white"/>
<path d="M373.336 404.707L366.676 404.739L366.075 398.079L372.719 398.047L373.336 404.707Z" fill="#407BFF"/>
<path opacity="0.2" d="M373.336 404.707L366.676 404.739L366.075 398.079L372.719 398.047L373.336 404.707Z" fill="white"/>
<path d="M374.981 422.647L368.321 422.679L367.72 416.034L374.364 416.003L374.981 422.647Z" fill="white"/>
<path d="M258.467 440.982V450.633H201.768L195.646 651.91H190.441V440.982H258.467Z" fill="#263238"/>
<path opacity="0.7" d="M258.467 440.982V450.633H201.768L195.646 651.91H190.441V440.982H258.467Z" fill="white"/>
<path d="M190.441 651.91H185.521L183.939 440.982H190.441V651.91Z" fill="#263238"/>
<g opacity="0.3">
<path d="M190.441 651.91H185.521L183.939 440.982H190.441V651.91Z" fill="white"/>
</g>
<path d="M274.604 440.982V651.91H269.446L264.858 450.633H258.784V440.982H274.604Z" fill="#263238"/>
<path d="M270.032 651.91H265.112L258.784 440.982H265.286L270.032 651.91Z" fill="#263238"/>
<g opacity="0.3">
<path d="M270.032 651.91H265.112L258.784 440.982H265.286L270.032 651.91Z" fill="white"/>
</g>
<path opacity="0.7" d="M274.604 440.982V651.91H269.446L264.858 450.633H258.784V440.982H274.604Z" fill="white"/>
<path d="M583.995 651.91H579.091L572.763 440.982H579.249L583.995 651.91Z" fill="#263238"/>
<path opacity="0.3" d="M572.763 440.982H579.249L583.995 651.91H579.091" fill="white"/>
<path d="M499.706 440.982H190.473V456.976H499.706V440.982Z" fill="#263238"/>
<path opacity="0.5" d="M499.706 440.982H190.473V456.976H499.706V440.982Z" fill="white"/>
<path d="M504.737 440.982V651.91H509.926L516.048 450.617H578.838L583.426 651.91H588.583V440.982H504.737Z" fill="#263238"/>
<path opacity="0.7" d="M504.737 440.982V651.91H509.926L516.048 450.617H578.838L583.426 651.91H588.583V440.982H504.737Z" fill="white"/>
<path d="M504.737 651.91H499.817L498.235 440.982H504.737V651.91Z" fill="#263238"/>
<path opacity="0.3" d="M504.737 651.91H499.817L498.235 440.982H504.737V651.91Z" fill="white"/>
<path d="M500.671 428.849H175.333V440.982H500.671V428.849Z" fill="#263238"/>
<path opacity="0.6" d="M500.671 428.849H175.333V440.982H500.671V428.849Z" fill="white"/>
<path d="M597.189 428.849H493.125V440.982H597.189V428.849Z" fill="#263238"/>
<path opacity="0.7" d="M597.189 428.849H493.125V440.982H597.189V428.849Z" fill="white"/>
<path d="M308.727 403.094H118.792C145.386 306.908 92.199 210.77 118.792 114.6H308.727C282.134 210.77 335.384 306.908 308.727 403.094Z" fill="#041499"/>
<path opacity="0.7" d="M308.727 403.094H118.792C145.386 306.908 92.199 210.77 118.792 114.6H308.727C282.134 210.77 335.384 306.908 308.727 403.094Z" fill="white"/>
<path d="M286.643 175.001H200.819C200.597 175.001 200.383 174.913 200.226 174.755C200.069 174.598 199.981 174.385 199.981 174.162C199.981 173.94 200.069 173.727 200.226 173.57C200.383 173.412 200.597 173.324 200.819 173.324H286.643C286.865 173.324 287.078 173.412 287.235 173.57C287.393 173.727 287.481 173.94 287.481 174.162C287.481 174.385 287.393 174.598 287.235 174.755C287.078 174.913 286.865 175.001 286.643 175.001Z" fill="#263238"/>
<path d="M287.054 192.055H201.23C201.006 192.051 200.792 191.963 200.63 191.807C200.469 191.651 200.372 191.44 200.36 191.216C200.354 191.109 200.369 191.001 200.406 190.899C200.443 190.798 200.5 190.705 200.575 190.626C200.649 190.548 200.738 190.485 200.837 190.442C200.936 190.4 201.043 190.378 201.151 190.378H286.975C287.201 190.381 287.417 190.469 287.581 190.625C287.745 190.78 287.845 190.991 287.861 191.216C287.865 191.325 287.847 191.433 287.809 191.535C287.77 191.636 287.711 191.729 287.636 191.807C287.561 191.886 287.47 191.948 287.37 191.991C287.27 192.033 287.163 192.055 287.054 192.055Z" fill="#263238"/>
<path d="M288.161 209.188H126.797C126.569 209.182 126.351 209.094 126.182 208.94C126.014 208.786 125.906 208.576 125.88 208.349C125.869 208.243 125.88 208.136 125.913 208.035C125.946 207.933 126 207.84 126.072 207.761C126.144 207.681 126.231 207.618 126.329 207.575C126.427 207.532 126.532 207.51 126.639 207.511H288.003C288.231 207.514 288.449 207.602 288.615 207.757C288.782 207.911 288.885 208.123 288.905 208.349C288.916 208.454 288.905 208.56 288.873 208.661C288.84 208.761 288.788 208.854 288.718 208.932C288.648 209.011 288.562 209.075 288.466 209.119C288.371 209.163 288.267 209.186 288.161 209.188Z" fill="#263238"/>
<path d="M301.577 355.428H140.165C140.056 355.43 139.947 355.41 139.846 355.368C139.745 355.327 139.654 355.264 139.578 355.186C139.502 355.107 139.443 355.013 139.406 354.911C139.368 354.808 139.352 354.699 139.358 354.589C139.374 354.366 139.475 354.156 139.639 354.004C139.804 353.851 140.02 353.766 140.244 353.767H301.608C301.716 353.764 301.822 353.784 301.921 353.825C302.02 353.866 302.11 353.927 302.184 354.004C302.259 354.082 302.316 354.174 302.353 354.274C302.39 354.375 302.406 354.482 302.399 354.589C302.392 354.807 302.303 355.013 302.151 355.168C301.999 355.324 301.794 355.416 301.577 355.428Z" fill="#263238"/>
<path d="M191.422 384.742H136.938C136.834 384.745 136.73 384.724 136.635 384.68C136.54 384.637 136.457 384.572 136.391 384.491C136.325 384.41 136.279 384.315 136.256 384.213C136.233 384.111 136.233 384.005 136.258 383.904C136.304 383.674 136.425 383.467 136.603 383.315C136.781 383.163 137.005 383.075 137.239 383.065H191.675C191.779 383.063 191.883 383.084 191.978 383.127C192.073 383.171 192.156 383.236 192.222 383.317C192.288 383.398 192.334 383.493 192.357 383.595C192.38 383.697 192.38 383.802 192.355 383.904C192.312 384.126 192.197 384.328 192.029 384.479C191.86 384.63 191.647 384.723 191.422 384.742Z" fill="#263238"/>
<path d="M298.903 384.742H244.466C244.362 384.745 244.259 384.724 244.164 384.68C244.069 384.637 243.985 384.572 243.92 384.491C243.854 384.41 243.808 384.315 243.784 384.213C243.761 384.111 243.762 384.005 243.786 383.904C243.829 383.673 243.95 383.464 244.129 383.312C244.307 383.159 244.532 383.072 244.767 383.065H299.204C299.308 383.063 299.412 383.084 299.506 383.127C299.601 383.171 299.685 383.236 299.751 383.317C299.816 383.398 299.863 383.493 299.886 383.595C299.909 383.697 299.908 383.802 299.884 383.904C299.838 384.133 299.716 384.341 299.539 384.493C299.361 384.645 299.137 384.733 298.903 384.742Z" fill="#263238"/>
<path d="M169.606 153.644C169.606 160.81 164.212 165.272 155.621 165.272H149.135V174.147H141.684V141.953H155.621C164.212 141.953 169.606 146.414 169.606 153.644ZM162.06 153.644C162.06 150.1 159.75 148.028 155.21 148.028H149.135V159.197H155.21C159.782 159.197 162.06 157.14 162.06 153.644Z" fill="#041499"/>
<path d="M174.716 192.545L166.948 181.376L159.307 192.545H150.749L162.661 176.172L151.35 160.352H159.782L167.186 170.793L174.463 160.352H182.515L171.283 175.903L183.291 192.545H174.716Z" fill="#041499"/>
<path d="M136.97 219.898C136.97 221.67 135.641 222.777 133.505 222.777H131.923V224.976H130.056V217.066H133.505C135.641 216.924 136.97 218.031 136.97 219.898ZM135.103 219.898C135.103 219.028 134.533 218.506 133.41 218.506H131.828V221.274H133.41C134.47 221.195 135.103 220.689 135.103 219.898Z" fill="#263238"/>
<path d="M141.953 218.68V220.262H141.542C141.323 220.261 141.106 220.306 140.905 220.393C140.705 220.48 140.524 220.608 140.376 220.769C140.227 220.93 140.113 221.119 140.042 221.326C139.97 221.533 139.942 221.752 139.96 221.97V224.865H138.14V218.743H139.833V219.55C140.09 219.245 140.418 219.007 140.787 218.856C141.156 218.704 141.556 218.644 141.953 218.68Z" fill="#263238"/>
<path d="M148.898 222.334H144.278C144.362 222.72 144.587 223.06 144.909 223.289C145.231 223.517 145.627 223.617 146.019 223.568C146.31 223.585 146.601 223.54 146.874 223.436C147.146 223.333 147.394 223.173 147.601 222.967L148.55 223.995C148.071 224.458 147.473 224.777 146.822 224.916C146.172 225.056 145.495 225.01 144.869 224.784C144.243 224.559 143.693 224.162 143.281 223.64C142.869 223.117 142.611 222.489 142.538 221.828C142.538 221.404 142.623 220.985 142.788 220.595C142.953 220.205 143.194 219.852 143.498 219.556C143.802 219.261 144.162 219.03 144.557 218.877C144.952 218.724 145.374 218.651 145.797 218.664C146.217 218.646 146.637 218.716 147.029 218.868C147.421 219.021 147.777 219.253 148.074 219.551C148.372 219.848 148.604 220.204 148.757 220.596C148.909 220.988 148.979 221.408 148.961 221.828C148.945 221.986 148.914 222.192 148.898 222.334ZM144.247 221.29H147.268C147.168 220.968 146.968 220.686 146.696 220.486C146.424 220.285 146.095 220.177 145.758 220.177C145.42 220.177 145.091 220.285 144.819 220.486C144.548 220.686 144.347 220.968 144.247 221.29Z" fill="#263238"/>
<path d="M149.515 224.328L150.116 223.046C150.753 223.439 151.487 223.647 152.236 223.647C153.059 223.647 153.375 223.426 153.375 223.078C153.375 222.081 149.673 223.078 149.673 220.657C149.673 219.503 150.717 218.68 152.505 218.68C153.323 218.663 154.132 218.848 154.862 219.218L154.261 220.483C153.727 220.176 153.121 220.017 152.505 220.025C151.714 220.025 151.366 220.278 151.366 220.594C151.366 221.638 155.068 220.594 155.068 223.046C155.068 224.169 154.008 224.992 152.173 224.992C151.243 225.01 150.326 224.78 149.515 224.328Z" fill="#263238"/>
<path d="M155.7 221.828C155.699 221.392 155.788 220.96 155.962 220.56C156.135 220.16 156.39 219.8 156.709 219.502C157.029 219.205 157.406 218.977 157.818 218.833C158.23 218.689 158.667 218.631 159.102 218.664C159.667 218.618 160.232 218.745 160.724 219.027C161.215 219.31 161.61 219.735 161.854 220.246L160.478 220.974C160.345 220.723 160.147 220.514 159.905 220.366C159.663 220.219 159.385 220.139 159.102 220.135C158.653 220.135 158.222 220.314 157.905 220.631C157.587 220.948 157.409 221.379 157.409 221.828C157.409 222.277 157.587 222.708 157.905 223.025C158.222 223.342 158.653 223.521 159.102 223.521C159.387 223.528 159.669 223.453 159.913 223.304C160.157 223.155 160.354 222.94 160.478 222.682L161.854 223.442C161.604 223.949 161.209 224.37 160.719 224.652C160.229 224.934 159.666 225.063 159.102 225.024C158.664 225.057 158.224 224.998 157.81 224.852C157.397 224.706 157.018 224.475 156.698 224.174C156.378 223.874 156.124 223.51 155.952 223.106C155.781 222.702 155.695 222.267 155.7 221.828Z" fill="#263238"/>
<path d="M166.664 218.68V220.262H166.268C166.049 220.261 165.833 220.306 165.632 220.393C165.431 220.48 165.251 220.608 165.102 220.769C164.954 220.93 164.84 221.119 164.768 221.326C164.697 221.533 164.669 221.752 164.686 221.97V224.866H162.946V218.743H164.528V219.55C164.786 219.242 165.116 219.002 165.488 218.85C165.86 218.698 166.264 218.64 166.664 218.68Z" fill="#263238"/>
<path d="M167.502 216.924C167.506 216.785 167.538 216.649 167.597 216.523C167.655 216.397 167.739 216.285 167.843 216.193C167.947 216.101 168.068 216.031 168.2 215.988C168.332 215.945 168.471 215.93 168.61 215.943C168.746 215.928 168.883 215.941 169.014 215.981C169.145 216.021 169.266 216.088 169.37 216.177C169.474 216.266 169.558 216.375 169.618 216.498C169.678 216.621 169.711 216.756 169.717 216.892C169.717 217.186 169.6 217.468 169.393 217.675C169.185 217.883 168.903 218 168.61 218C168.316 218 168.034 217.883 167.827 217.675C167.619 217.468 167.502 217.186 167.502 216.892V216.924ZM167.724 218.775H169.495V224.897H167.692L167.724 218.775Z" fill="#263238"/>
<path d="M177.817 221.828C177.841 222.241 177.779 222.653 177.636 223.041C177.493 223.428 177.27 223.782 176.983 224.079C176.697 224.376 176.351 224.611 175.969 224.768C175.587 224.925 175.177 225.002 174.764 224.992C174.42 225.006 174.077 224.947 173.758 224.818C173.439 224.69 173.151 224.496 172.913 224.249V227.096H171.141V218.775H172.833V219.471C173.076 219.203 173.375 218.994 173.709 218.857C174.043 218.72 174.403 218.66 174.764 218.68C175.175 218.671 175.584 218.746 175.965 218.903C176.346 219.059 176.691 219.292 176.977 219.587C177.264 219.883 177.487 220.235 177.631 220.62C177.775 221.006 177.839 221.417 177.817 221.828ZM176.013 221.828C175.992 221.521 175.881 221.227 175.695 220.981C175.508 220.736 175.254 220.551 174.964 220.448C174.674 220.345 174.36 220.329 174.06 220.402C173.761 220.475 173.49 220.634 173.279 220.859C173.069 221.084 172.929 221.365 172.876 221.669C172.824 221.972 172.861 222.284 172.983 222.567C173.106 222.85 173.308 223.091 173.565 223.26C173.822 223.429 174.123 223.52 174.431 223.521C174.649 223.521 174.864 223.477 175.063 223.391C175.263 223.304 175.443 223.178 175.591 223.019C175.739 222.86 175.854 222.672 175.926 222.468C175.999 222.263 176.029 222.045 176.013 221.828Z" fill="#263238"/>
<path d="M182.942 224.644C182.509 224.921 182.001 225.059 181.487 225.04C181.185 225.082 180.877 225.055 180.587 224.961C180.296 224.867 180.031 224.708 179.812 224.496C179.592 224.284 179.424 224.024 179.319 223.738C179.215 223.451 179.177 223.144 179.209 222.841V220.325H178.26V218.949H179.209V217.462H180.981V218.949H182.563V220.325H180.981V222.809C180.966 222.914 180.976 223.021 181.008 223.123C181.04 223.224 181.095 223.316 181.168 223.394C181.24 223.471 181.33 223.531 181.429 223.57C181.528 223.608 181.634 223.624 181.74 223.616C181.995 223.62 182.245 223.543 182.452 223.394L182.942 224.644Z" fill="#263238"/>
<path d="M183.718 216.924C183.721 216.785 183.754 216.649 183.812 216.523C183.871 216.397 183.955 216.285 184.058 216.193C184.162 216.101 184.284 216.031 184.416 215.988C184.548 215.945 184.687 215.93 184.825 215.943C184.96 215.93 185.096 215.945 185.225 215.986C185.354 216.027 185.473 216.094 185.575 216.183C185.677 216.272 185.76 216.38 185.819 216.502C185.878 216.624 185.911 216.757 185.917 216.892C185.884 217.161 185.755 217.409 185.552 217.589C185.349 217.768 185.088 217.867 184.817 217.867C184.546 217.867 184.285 217.768 184.082 217.589C183.88 217.409 183.75 217.161 183.718 216.892V216.924ZM183.923 218.775H185.711V224.897H183.923V218.775Z" fill="#263238"/>
<path d="M186.897 221.828C186.856 221.154 187.018 220.484 187.363 219.903C187.707 219.323 188.218 218.859 188.829 218.572C189.44 218.285 190.123 218.189 190.789 218.294C191.456 218.4 192.075 218.704 192.567 219.166C193.059 219.628 193.401 220.227 193.549 220.886C193.697 221.544 193.643 222.232 193.395 222.86C193.147 223.488 192.717 224.026 192.159 224.407C191.601 224.787 190.942 224.991 190.267 224.992C189.835 225.02 189.401 224.959 188.993 224.813C188.585 224.667 188.212 224.438 187.896 224.141C187.58 223.845 187.328 223.486 187.156 223.088C186.985 222.69 186.897 222.261 186.897 221.828ZM191.817 221.828C191.796 221.521 191.685 221.226 191.499 220.981C191.312 220.736 191.058 220.551 190.768 220.448C190.478 220.345 190.164 220.329 189.865 220.402C189.565 220.475 189.294 220.634 189.084 220.859C188.873 221.084 188.733 221.365 188.681 221.669C188.628 221.972 188.665 222.284 188.787 222.567C188.91 222.85 189.112 223.09 189.369 223.26C189.626 223.429 189.927 223.52 190.235 223.521C190.453 223.521 190.668 223.477 190.868 223.391C191.067 223.304 191.247 223.178 191.395 223.019C191.544 222.86 191.658 222.672 191.73 222.467C191.803 222.263 191.833 222.045 191.817 221.828Z" fill="#263238"/>
<path d="M201.056 221.385V224.897H199.332V221.733C199.332 220.752 198.873 220.294 198.082 220.294C197.291 220.294 196.627 220.816 196.627 221.876V224.913H194.839V218.791H196.548V219.503C196.81 219.233 197.125 219.022 197.474 218.883C197.823 218.744 198.197 218.68 198.573 218.696C198.921 218.679 199.269 218.739 199.592 218.871C199.915 219.003 200.205 219.205 200.442 219.461C200.679 219.717 200.856 220.023 200.962 220.355C201.069 220.687 201.101 221.039 201.056 221.385Z" fill="#263238"/>
<path d="M202.227 219.787C202.22 219.642 202.244 219.497 202.296 219.362C202.349 219.226 202.429 219.103 202.532 219C202.634 218.898 202.758 218.817 202.893 218.765C203.029 218.713 203.174 218.689 203.319 218.696C203.464 218.689 203.61 218.713 203.746 218.765C203.883 218.817 204.007 218.897 204.111 219C204.215 219.102 204.296 219.225 204.351 219.361C204.405 219.496 204.431 219.641 204.426 219.787C204.43 219.934 204.405 220.08 204.351 220.216C204.297 220.353 204.215 220.476 204.111 220.58C204.008 220.684 203.884 220.765 203.748 220.819C203.611 220.873 203.465 220.899 203.319 220.895C203.173 220.897 203.029 220.87 202.895 220.815C202.76 220.759 202.638 220.678 202.536 220.574C202.434 220.471 202.354 220.348 202.301 220.212C202.248 220.077 202.223 219.933 202.227 219.787ZM202.227 223.869C202.22 223.724 202.244 223.579 202.296 223.443C202.349 223.308 202.429 223.185 202.532 223.082C202.634 222.979 202.758 222.899 202.893 222.847C203.029 222.794 203.174 222.771 203.319 222.777C203.464 222.771 203.61 222.794 203.746 222.847C203.883 222.899 204.007 222.979 204.111 223.081C204.215 223.184 204.296 223.307 204.351 223.442C204.405 223.578 204.431 223.723 204.426 223.869C204.43 224.016 204.405 224.163 204.351 224.3C204.297 224.437 204.216 224.562 204.112 224.667C204.009 224.772 203.885 224.855 203.749 224.911C203.612 224.967 203.466 224.994 203.319 224.992C203.172 224.994 203.026 224.967 202.891 224.911C202.755 224.855 202.633 224.771 202.53 224.666C202.428 224.561 202.348 224.436 202.296 224.299C202.244 224.162 202.221 224.015 202.227 223.869Z" fill="#263238"/>
<path d="M348.818 218.256L320.689 209.301C315.603 207.681 310.166 210.492 308.547 215.579L277.836 312.04C276.217 317.127 279.027 322.564 284.114 324.183L312.243 333.139C317.33 334.758 322.766 331.947 324.386 326.861L355.097 230.399C356.716 225.312 353.905 219.876 348.818 218.256Z" fill="black"/>
<path opacity="0.8" d="M355.539 227.808C355.521 228.706 355.372 229.596 355.096 230.45L324.389 326.952C324.284 327.28 324.163 327.602 324.025 327.917C323.067 330.101 321.334 331.852 319.16 332.834C316.987 333.815 314.527 333.957 312.255 333.232L284.111 324.278C281.712 323.509 279.708 321.834 278.526 319.608C277.344 317.383 277.078 314.785 277.783 312.366L295.502 256.727L308.49 215.579C308.87 214.366 309.486 213.24 310.301 212.265C311.117 211.29 312.117 210.486 313.244 209.898C314.371 209.31 315.603 208.951 316.87 208.84C318.136 208.729 319.412 208.868 320.624 209.251L348.831 218.316C349.447 218.513 350.041 218.772 350.603 219.091C352.147 219.951 353.424 221.219 354.295 222.756C355.166 224.294 355.596 226.042 355.539 227.808Z" fill="white"/>
<g opacity="0.6">
<path opacity="0.5" d="M287.481 281.77L300.248 241.698L336.396 214.298L350.634 219.044C352.181 219.904 353.46 221.175 354.331 222.716C355.202 224.256 355.631 226.008 355.57 227.776L287.481 281.77Z" fill="white"/>
</g>
<path opacity="0.5" d="M305.326 225.593L308.49 215.579C308.87 214.366 309.486 213.24 310.301 212.265C311.117 211.29 312.117 210.486 313.244 209.898C314.371 209.31 315.603 208.951 316.87 208.84C318.136 208.729 319.412 208.868 320.624 209.251L324.848 210.596L305.326 225.593Z" fill="white"/>
<path d="M324.737 225.198C324.515 225.895 324.091 226.511 323.519 226.968C322.946 227.425 322.251 227.701 321.522 227.763C320.792 227.825 320.061 227.669 319.42 227.315C318.779 226.961 318.258 226.425 317.921 225.774C317.585 225.124 317.449 224.389 317.531 223.661C317.613 222.933 317.908 222.246 318.381 221.687C318.853 221.127 319.48 220.72 320.184 220.517C320.887 220.314 321.635 220.325 322.333 220.547C322.797 220.692 323.228 220.928 323.601 221.242C323.974 221.555 324.281 221.939 324.504 222.371C324.728 222.803 324.863 223.276 324.903 223.761C324.943 224.246 324.887 224.735 324.737 225.198Z" fill="#407BFF"/>
<path d="M317.681 247.314C317.459 248.008 317.036 248.621 316.466 249.075C315.895 249.529 315.203 249.803 314.476 249.863C313.75 249.924 313.022 249.768 312.384 249.414C311.747 249.061 311.228 248.527 310.894 247.879C310.56 247.231 310.426 246.498 310.508 245.774C310.591 245.05 310.886 244.366 311.357 243.81C311.827 243.253 312.453 242.849 313.153 242.647C313.854 242.446 314.598 242.457 315.293 242.679C315.754 242.826 316.182 243.063 316.551 243.376C316.921 243.689 317.226 244.071 317.447 244.502C317.669 244.932 317.804 245.402 317.844 245.885C317.884 246.367 317.829 246.853 317.681 247.314Z" fill="#407BFF"/>
<path d="M310.642 269.446C310.422 270.146 310 270.764 309.428 271.223C308.857 271.682 308.162 271.961 307.432 272.025C306.702 272.089 305.969 271.934 305.327 271.581C304.684 271.228 304.161 270.692 303.824 270.042C303.486 269.391 303.349 268.655 303.431 267.927C303.512 267.198 303.808 266.51 304.28 265.95C304.753 265.39 305.381 264.982 306.086 264.78C306.79 264.577 307.539 264.588 308.237 264.811C308.7 264.957 309.129 265.192 309.5 265.504C309.872 265.816 310.178 266.199 310.402 266.629C310.625 267.06 310.761 267.531 310.802 268.014C310.844 268.497 310.789 268.984 310.642 269.446Z" fill="#407BFF"/>
<path d="M303.602 291.578C303.379 292.276 302.955 292.892 302.383 293.349C301.811 293.805 301.116 294.082 300.386 294.144C299.657 294.205 298.925 294.049 298.285 293.695C297.644 293.341 297.122 292.805 296.786 292.155C296.45 291.505 296.314 290.769 296.396 290.042C296.477 289.314 296.773 288.627 297.245 288.068C297.717 287.508 298.345 287.101 299.048 286.898C299.752 286.695 300.499 286.705 301.197 286.927C301.661 287.073 302.093 287.309 302.465 287.622C302.838 287.935 303.145 288.319 303.369 288.752C303.592 289.184 303.728 289.657 303.768 290.142C303.808 290.627 303.751 291.115 303.602 291.578Z" fill="#407BFF"/>
<path d="M296.562 313.695C296.342 314.394 295.92 315.012 295.348 315.472C294.777 315.931 294.082 316.21 293.352 316.274C292.622 316.337 291.889 316.183 291.247 315.83C290.604 315.477 290.081 314.941 289.744 314.29C289.406 313.64 289.27 312.904 289.351 312.175C289.432 311.447 289.728 310.759 290.201 310.199C290.673 309.638 291.301 309.231 292.006 309.028C292.71 308.825 293.459 308.836 294.157 309.06C295.087 309.361 295.86 310.016 296.31 310.884C296.76 311.751 296.851 312.761 296.562 313.695Z" fill="#407BFF"/>
<path d="M342.519 230.861C342.178 231.739 341.514 232.454 340.664 232.861C339.814 233.267 338.841 233.333 337.943 233.047C337.045 232.76 336.291 232.143 335.833 231.319C335.375 230.495 335.248 229.528 335.479 228.615C335.603 228.125 335.825 227.665 336.133 227.264C336.441 226.864 336.828 226.53 337.27 226.285C337.711 226.039 338.199 225.887 338.702 225.837C339.204 225.786 339.712 225.84 340.194 225.994C340.675 226.147 341.12 226.398 341.501 226.73C341.882 227.062 342.191 227.469 342.409 227.925C342.627 228.381 342.749 228.877 342.768 229.382C342.787 229.887 342.702 230.39 342.519 230.861Z" fill="#407BFF"/>
<path d="M335.479 252.978C335.258 253.672 334.836 254.285 334.266 254.739C333.697 255.194 333.006 255.469 332.28 255.531C331.554 255.593 330.826 255.438 330.188 255.087C329.55 254.735 329.03 254.202 328.695 253.556C328.36 252.909 328.223 252.177 328.303 251.453C328.383 250.729 328.676 250.045 329.145 249.487C329.613 248.929 330.237 248.523 330.936 248.319C331.635 248.115 332.379 248.124 333.074 248.342C334.006 248.64 334.783 249.295 335.233 250.164C335.684 251.032 335.772 252.044 335.479 252.978Z" fill="#407BFF"/>
<path d="M328.439 275.11C328.219 275.809 327.797 276.428 327.226 276.887C326.654 277.346 325.96 277.625 325.229 277.689C324.499 277.752 323.766 277.598 323.124 277.245C322.482 276.892 321.959 276.356 321.621 275.705C321.284 275.055 321.147 274.319 321.228 273.59C321.309 272.862 321.605 272.174 322.078 271.614C322.55 271.053 323.179 270.646 323.883 270.443C324.587 270.241 325.336 270.251 326.034 270.475C326.964 270.776 327.737 271.432 328.188 272.299C328.638 273.166 328.728 274.176 328.439 275.11Z" fill="#407BFF"/>
<path d="M321.383 297.242C321.042 298.12 320.379 298.835 319.528 299.241C318.678 299.647 317.705 299.714 316.807 299.428C315.91 299.141 315.155 298.523 314.697 297.7C314.24 296.876 314.113 295.909 314.343 294.996C314.467 294.505 314.69 294.046 314.998 293.645C315.306 293.244 315.692 292.911 316.134 292.666C316.576 292.42 317.063 292.267 317.566 292.217C318.069 292.167 318.577 292.221 319.058 292.374C319.54 292.528 319.985 292.779 320.366 293.111C320.746 293.443 321.055 293.849 321.273 294.305C321.491 294.761 321.613 295.257 321.632 295.762C321.651 296.267 321.566 296.771 321.383 297.242Z" fill="#407BFF"/>
<path d="M314.343 319.358C314.122 320.052 313.7 320.665 313.131 321.12C312.561 321.574 311.87 321.85 311.144 321.912C310.418 321.974 309.691 321.819 309.053 321.467C308.414 321.116 307.895 320.583 307.559 319.936C307.224 319.29 307.088 318.558 307.168 317.834C307.248 317.11 307.54 316.426 308.009 315.868C308.478 315.31 309.101 314.904 309.8 314.7C310.5 314.496 311.244 314.504 311.939 314.723C312.871 315.021 313.647 315.676 314.098 316.545C314.548 317.413 314.637 318.425 314.343 319.358Z" fill="#407BFF"/>
<g opacity="0.4">
<path d="M324.737 225.198C324.515 225.895 324.091 226.511 323.519 226.968C322.946 227.425 322.251 227.701 321.522 227.763C320.792 227.825 320.061 227.669 319.42 227.315C318.779 226.961 318.258 226.425 317.921 225.774C317.585 225.124 317.449 224.389 317.531 223.661C317.613 222.933 317.908 222.246 318.381 221.687C318.853 221.127 319.48 220.72 320.184 220.517C320.887 220.314 321.635 220.325 322.333 220.547C322.797 220.692 323.228 220.928 323.601 221.242C323.974 221.555 324.281 221.939 324.504 222.371C324.728 222.803 324.863 223.276 324.903 223.761C324.943 224.246 324.887 224.735 324.737 225.198Z" fill="white"/>
<path d="M317.681 247.314C317.459 248.008 317.036 248.621 316.466 249.075C315.895 249.529 315.203 249.803 314.476 249.863C313.75 249.924 313.022 249.768 312.384 249.414C311.747 249.061 311.228 248.527 310.894 247.879C310.56 247.231 310.426 246.498 310.508 245.774C310.591 245.05 310.886 244.366 311.357 243.81C311.827 243.253 312.453 242.849 313.153 242.647C313.854 242.446 314.598 242.457 315.293 242.679C315.754 242.826 316.182 243.063 316.551 243.376C316.921 243.689 317.226 244.071 317.447 244.502C317.669 244.932 317.804 245.402 317.844 245.885C317.884 246.367 317.829 246.853 317.681 247.314Z" fill="white"/>
<path d="M310.642 269.446C310.422 270.146 310 270.764 309.428 271.223C308.857 271.682 308.162 271.961 307.432 272.025C306.702 272.089 305.969 271.934 305.327 271.581C304.684 271.228 304.161 270.692 303.824 270.042C303.486 269.391 303.349 268.655 303.431 267.927C303.512 267.198 303.808 266.51 304.28 265.95C304.753 265.39 305.381 264.982 306.086 264.78C306.79 264.577 307.539 264.588 308.237 264.811C308.7 264.957 309.129 265.192 309.5 265.504C309.872 265.816 310.178 266.199 310.402 266.629C310.625 267.06 310.761 267.531 310.802 268.014C310.844 268.497 310.789 268.984 310.642 269.446Z" fill="white"/>
<path d="M303.602 291.578C303.379 292.276 302.955 292.892 302.383 293.349C301.811 293.805 301.116 294.082 300.386 294.144C299.657 294.205 298.925 294.049 298.285 293.695C297.644 293.341 297.122 292.805 296.786 292.155C296.45 291.505 296.314 290.769 296.396 290.042C296.477 289.314 296.773 288.627 297.245 288.068C297.717 287.508 298.345 287.101 299.048 286.898C299.752 286.695 300.499 286.705 301.197 286.927C301.662 287.073 302.093 287.309 302.465 287.622C302.838 287.935 303.145 288.319 303.369 288.752C303.592 289.184 303.728 289.657 303.768 290.142C303.808 290.627 303.751 291.115 303.602 291.578Z" fill="white"/>
<path d="M296.562 313.695C296.342 314.394 295.92 315.012 295.348 315.472C294.777 315.931 294.082 316.21 293.352 316.274C292.622 316.337 291.889 316.183 291.247 315.83C290.604 315.477 290.081 314.941 289.744 314.29C289.406 313.64 289.27 312.904 289.351 312.175C289.432 311.447 289.728 310.759 290.201 310.199C290.673 309.638 291.301 309.231 292.006 309.028C292.71 308.825 293.459 308.836 294.157 309.06C295.087 309.361 295.86 310.016 296.31 310.884C296.76 311.751 296.851 312.761 296.562 313.695Z" fill="white"/>
</g>
<g opacity="0.4">
<path d="M342.519 230.861C342.178 231.739 341.514 232.454 340.664 232.861C339.814 233.267 338.841 233.333 337.943 233.047C337.045 232.76 336.291 232.143 335.833 231.319C335.375 230.495 335.248 229.528 335.479 228.615C335.603 228.125 335.825 227.665 336.133 227.264C336.441 226.864 336.828 226.53 337.27 226.285C337.711 226.039 338.199 225.887 338.702 225.837C339.204 225.786 339.712 225.84 340.194 225.994C340.675 226.147 341.12 226.398 341.501 226.73C341.882 227.062 342.191 227.469 342.409 227.925C342.627 228.381 342.749 228.877 342.768 229.382C342.787 229.887 342.702 230.39 342.519 230.861Z" fill="white"/>
<path d="M335.479 252.978C335.258 253.672 334.836 254.285 334.266 254.739C333.697 255.193 333.006 255.469 332.28 255.531C331.554 255.593 330.826 255.438 330.188 255.086C329.55 254.735 329.03 254.202 328.695 253.555C328.36 252.909 328.223 252.177 328.303 251.453C328.383 250.729 328.676 250.045 329.145 249.487C329.613 248.929 330.237 248.523 330.936 248.319C331.635 248.115 332.379 248.123 333.074 248.342C334.006 248.64 334.783 249.295 335.233 250.164C335.684 251.032 335.772 252.044 335.479 252.978Z" fill="white"/>
<path d="M328.439 275.11C328.219 275.809 327.797 276.427 327.226 276.886C326.654 277.346 325.96 277.625 325.229 277.688C324.499 277.752 323.766 277.598 323.124 277.245C322.482 276.892 321.959 276.356 321.621 275.705C321.284 275.055 321.147 274.318 321.228 273.59C321.309 272.862 321.605 272.174 322.078 271.613C322.55 271.053 323.179 270.646 323.883 270.443C324.588 270.24 325.336 270.251 326.034 270.474C326.964 270.776 327.737 271.431 328.188 272.299C328.638 273.166 328.728 274.176 328.439 275.11Z" fill="white"/>
<path d="M321.383 297.242C321.042 298.12 320.379 298.835 319.528 299.241C318.678 299.647 317.705 299.714 316.807 299.428C315.91 299.141 315.155 298.523 314.697 297.7C314.24 296.876 314.113 295.909 314.343 294.996C314.467 294.505 314.69 294.046 314.998 293.645C315.306 293.244 315.692 292.911 316.134 292.666C316.576 292.42 317.063 292.267 317.566 292.217C318.069 292.167 318.577 292.221 319.058 292.374C319.54 292.528 319.985 292.779 320.366 293.111C320.746 293.443 321.055 293.849 321.273 294.305C321.491 294.761 321.613 295.257 321.632 295.762C321.651 296.267 321.566 296.771 321.383 297.242Z" fill="white"/>
<path d="M314.343 319.358C314.122 320.052 313.7 320.665 313.131 321.12C312.561 321.574 311.87 321.85 311.144 321.912C310.418 321.973 309.691 321.819 309.053 321.467C308.414 321.116 307.895 320.583 307.559 319.936C307.224 319.29 307.088 318.558 307.168 317.834C307.248 317.11 307.54 316.426 308.009 315.868C308.478 315.31 309.101 314.904 309.8 314.7C310.5 314.496 311.244 314.504 311.939 314.723C312.871 315.021 313.647 315.676 314.098 316.544C314.548 317.413 314.637 318.425 314.343 319.358Z" fill="white"/>
</g>
<path opacity="0.7" d="M295.581 329.056L246.982 339.086C244.746 339.544 242.419 339.097 240.513 337.842C238.606 336.588 237.274 334.629 236.81 332.394L222.825 264.589C221.914 260.22 222.45 255.673 224.35 251.635C226.251 247.597 229.414 244.287 233.361 242.204C235.077 241.294 236.915 240.633 238.819 240.243L263.925 235.069C266.574 234.519 269.306 234.497 271.964 235.004C274.621 235.511 277.153 236.538 279.413 238.025C281.673 239.512 283.618 241.431 285.135 243.671C286.653 245.911 287.713 248.429 288.256 251.079L302.257 318.884C302.488 319.99 302.499 321.131 302.289 322.242C302.078 323.352 301.65 324.411 301.03 325.356C300.41 326.301 299.609 327.114 298.674 327.749C297.739 328.384 296.688 328.828 295.581 329.056Z" fill="white"/>
<path d="M288.891 254.188L223.446 267.694L233.831 318.017L299.276 304.511L288.891 254.188Z" fill="#407BFF"/>
<path opacity="0.4" d="M288.891 254.188L223.446 267.694L233.831 318.017L299.276 304.511L288.891 254.188Z" fill="white"/>
<path d="M231.087 225.619L266.722 218.265C267.298 218.147 267.891 218.142 268.469 218.253C269.046 218.363 269.596 218.587 270.087 218.91C270.579 219.233 271.001 219.65 271.331 220.136C271.662 220.623 271.893 221.169 272.011 221.745L273.402 228.485L228.936 237.661L227.532 230.859C227.421 230.282 227.426 229.688 227.544 229.112C227.663 228.536 227.894 227.99 228.224 227.503C228.554 227.016 228.977 226.599 229.468 226.276C229.959 225.953 230.509 225.73 231.087 225.619Z" fill="#407BFF"/>
<path opacity="0.7" d="M271.582 234.927C269.043 234.501 266.447 234.549 263.925 235.069L238.882 240.242C236.979 240.633 235.141 241.294 233.424 242.204L232.348 236.968L270.443 229.058L271.582 234.927Z" fill="white"/>
<path opacity="0.3" d="M232.712 245.938C232.691 245.68 232.589 245.436 232.42 245.24C232.251 245.044 232.024 244.908 231.772 244.849C231.52 244.791 231.256 244.815 231.018 244.917C230.781 245.018 230.582 245.193 230.45 245.416C228.683 248.25 227.873 251.578 228.14 254.908C228.995 260.603 241.144 322.696 243.011 332.204C243.172 332.986 243.597 333.69 244.213 334.197C244.624 334.525 245.104 334.753 245.617 334.866C246.13 334.978 246.662 334.971 247.172 334.846L249.023 334.387L233.203 253.215C233.203 253.215 232.918 249.323 232.712 245.938Z" fill="white"/>
</svg>
